ISO-10303-21;
HEADER;
FILE_DESCRIPTION (( 'STEP AP203' ),
    '1' );
FILE_NAME ('¶Ë¸Ç.STEP',
    '2025-12-08T03:32:58',
    ( '' ),
    ( '' ),
    'SwSTEP 2.0',
    'SolidWorks 2024',
    '' );
FILE_SCHEMA (( 'CONFIG_CONTROL_DESIGN' ));
ENDSEC;

DATA;
#1 = CC_DESIGN_PERSON_AND_ORGANIZATION_ASSIGNMENT ( #200, #291, ( #299 ) ) ;
#2 = EDGE_LOOP ( 'NONE', ( #319, #323, #262, #213 ) ) ;
#3 = LINE ( 'NONE', #274, #110 ) ;
#4 = ORIENTED_EDGE ( 'NONE', *, *, #83, .F. ) ;
#5 = CARTESIAN_POINT ( 'NONE',  ( 134.0000000000000000, 49.24513558192136742, -4.280416408009572571 ) ) ;
#6 = LINE ( 'NONE', #250, #373 ) ;
#7 = CARTESIAN_POINT ( 'NONE',  ( 134.0000000000000000, 42.99999999999998579, -17.86029115104232901 ) ) ;
#8 = LINE ( 'NONE', #44, #244 ) ;
#9 = FACE_OUTER_BOUND ( 'NONE', #2, .T. ) ;
#10 = EDGE_CURVE ( 'NONE', #55, #91, #326, .T. ) ;
#11 = PRODUCT_DEFINITION_SHAPE ( 'NONE', 'NONE',  #299 ) ;
#12 = CARTESIAN_POINT ( 'NONE',  ( 142.0000000000000000, 43.98515956857598752, -15.83038783704487606 ) ) ;
#13 = CARTESIAN_POINT ( 'NONE',  ( 142.0000000000000284, 50.00000000000001421, -6.323648207585476300 ) ) ;
#14 = CARTESIAN_POINT ( 'NONE',  ( 142.0000000000000284, 43.49999999999999289, 16.45298551864372172 ) ) ;
#15 = DIRECTION ( 'NONE',  ( -1.000000000000000000, -0.000000000000000000, -0.000000000000000000 ) ) ;
#16 = PRODUCT ( '\X2\7aef76d6\X0\', '\X2\7aef76d6\X0\', '', ( #259 ) ) ;
#17 = EDGE_CURVE ( 'NONE', #91, #336, #138, .T. ) ;
#18 = CC_DESIGN_DATE_AND_TIME_ASSIGNMENT ( #356, #231, ( #150 ) ) ;
#19 = DIRECTION ( 'NONE',  ( -1.000000000000000000, -0.000000000000000000, -0.000000000000000000 ) ) ;
#20 = CARTESIAN_POINT ( 'NONE',  ( 142.0000000000000284, 50.00000000000000000, 6.323648207585477188 ) ) ;
#21 = EDGE_CURVE ( 'NONE', #25, #33, #227, .T. ) ;
#22 = DATE_AND_TIME ( #56, #154 ) ;
#23 = CC_DESIGN_PERSON_AND_ORGANIZATION_ASSIGNMENT ( #232, #238, ( #16 ) ) ;
#24 = APPROVAL_ROLE ( '' ) ;
#25 = VERTEX_POINT ( 'NONE', #339 ) ;
#26 = COORDINATED_UNIVERSAL_TIME_OFFSET ( 8, 0, .AHEAD. ) ;
#27 = CARTESIAN_POINT ( 'NONE',  ( 134.0000000000000000, 46.53072790649454049, -11.91036172721130093 ) ) ;
#28 = PERSON ( 'æœª', 'æœª', 'æœª', ('æœª'), ('æœª'), ('æœª') ) ;
#29 = PERSON_AND_ORGANIZATION ( #28, #79 ) ;
#30 = EDGE_LOOP ( 'NONE', ( #101, #174, #57, #269, #157, #327, #304 ) ) ;
#31 = EDGE_CURVE ( 'NONE', #185, #230, #265, .T. ) ;
#32 = CC_DESIGN_APPROVAL ( #95, ( #299 ) ) ;
#33 = VERTEX_POINT ( 'NONE', #197 ) ;
#34 = CARTESIAN_POINT ( 'NONE',  ( 134.0000000000000000, 49.24513558192137452, 4.280416408009580564 ) ) ;
#35 = FACE_OUTER_BOUND ( 'NONE', #151, .T. ) ;
#36 = CC_DESIGN_DATE_AND_TIME_ASSIGNMENT ( #22, #118, ( #299 ) ) ;
#37 = AXIS2_PLACEMENT_3D ( 'NONE', #136, #289, #165 ) ;
#38 = DIRECTION ( 'NONE',  ( -1.000000000000000000, -0.000000000000000000, -0.000000000000000000 ) ) ;
#39 = ORIENTED_EDGE ( 'NONE', *, *, #48, .F. ) ;
#40 = CARTESIAN_POINT ( 'NONE',  ( 134.0000000000000000, 44.91830090537877140, 14.53934291951629731 ) ) ;
#41 = ORIENTED_EDGE ( 'NONE', *, *, #31, .T. ) ;
#42 = CARTESIAN_POINT ( 'NONE',  ( 142.0000000000000000, 43.98515956857598752, -15.83038783704487606 ) ) ;
#43 = FACE_OUTER_BOUND ( 'NONE', #295, .T. ) ;
#44 = CARTESIAN_POINT ( 'NONE',  ( 142.0000000000000284, 42.99999999999998579, 8.352955596991983393E-15 ) ) ;
#45 = CARTESIAN_POINT ( 'NONE',  ( 134.0000000000000000, 50.00000000000000000, 0.000000000000000000 ) ) ;
#46 =( NAMED_UNIT ( * ) SI_UNIT ( $, .STERADIAN. ) SOLID_ANGLE_UNIT ( ) );
#47 = ADVANCED_BREP_SHAPE_REPRESENTATION ( '\X2\7aef76d6\X0\', ( #235, #268 ), #124 ) ;
#48 = EDGE_CURVE ( 'NONE', #185, #33, #189, .T. ) ;
#49 = DIRECTION ( 'NONE',  ( 0.000000000000000000, 1.942547813253950389E-16, -1.000000000000000000 ) ) ;
#50 = AXIS2_PLACEMENT_3D ( 'NONE', #315, #349, #346 ) ;
#51 = DIRECTION ( 'NONE',  ( 0.000000000000000000, 1.387778780781444256E-14, -1.000000000000000000 ) ) ;
#52 = EDGE_LOOP ( 'NONE', ( #361, #294, #355, #246 ) ) ;
#53 = PERSON_AND_ORGANIZATION ( #28, #79 ) ;
#54 = COORDINATED_UNIVERSAL_TIME_OFFSET ( 8, 0, .AHEAD. ) ;
#55 = VERTEX_POINT ( 'NONE', #69 ) ;
#56 = CALENDAR_DATE ( 2025, 8, 12 ) ;
#57 = ORIENTED_EDGE ( 'NONE', *, *, #17, .T. ) ;
#58 = ORIENTED_EDGE ( 'NONE', *, *, #335, .T. ) ;
#59 = CARTESIAN_POINT ( 'NONE',  ( 134.0000000000000000, 50.00000000000000000, 0.000000000000000000 ) ) ;
#60 = DIRECTION ( 'NONE',  ( -1.000000000000000000, -0.000000000000000000, -0.000000000000000000 ) ) ;
#61 = CARTESIAN_POINT ( 'NONE',  ( 142.0000000000000284, 50.00000000000000000, 0.000000000000000000 ) ) ;
#62 = VERTEX_POINT ( 'NONE', #75 ) ;
#63 = CC_DESIGN_APPROVAL ( #201, ( #150 ) ) ;
#64 = VERTEX_POINT ( 'NONE', #223 ) ;
#65 = CARTESIAN_POINT ( 'NONE',  ( 134.0000000000000000, 44.91830090537876430, -14.53934291951628310 ) ) ;
#66 = EDGE_CURVE ( 'NONE', #62, #55, #288, .T. ) ;
#67 = CARTESIAN_POINT ( 'NONE',  ( 134.0000000000000000, 42.99999999999999289, -16.45298551864371106 ) ) ;
#68 = B_SPLINE_SURFACE_WITH_KNOTS ( 'NONE', 3, 1, ( 
 ( #184, #298 ),
 ( #133, #365 ),
 ( #214, #40 ),
 ( #305, #211 ),
 ( #328, #158 ),
 ( #276, #34 ),
 ( #102, #217 ),
 ( #390, #5 ),
 ( #177, #300 ),
 ( #186, #128 ),
 ( #337, #65 ),
 ( #42, #360 ),
 ( #160, #98 ) ),
 .UNSPECIFIED., .F., .F., .F.,
 ( 4, 1, 1, 1, 1, 1, 1, 1, 1, 1, 4 ),
 ( 2, 2 ),
 ( -0.4993627676531124937, -0.4369424216964734597, -0.3745220757398344258, -0.2496813838265563301, -0.1248406919132782483, -1.665334536937734811E-16, 0.1248406919132779153, 0.2496813838265559971, 0.3745220757398340927, 0.4369424216964731267, 0.4993627676531121606 ),
 ( 0.000000000000000000, 1.000000000000000000 ),
 .UNSPECIFIED. ) ;
#69 = CARTESIAN_POINT ( 'NONE',  ( 134.0000000000000000, 43.50000000000000000, -16.45298551864371106 ) ) ;
#70 = AXIS2_PLACEMENT_3D ( 'NONE', #106, #195, #49 ) ;
#71 = CC_DESIGN_APPROVAL ( #363, ( #103 ) ) ;
#72 = LINE ( 'NONE', #142, #342 ) ;
#73 =( NAMED_UNIT ( * ) PLANE_ANGLE_UNIT ( ) SI_UNIT ( $, .RADIAN. ) );
#74 = VERTEX_POINT ( 'NONE', #67 ) ;
#75 = CARTESIAN_POINT ( 'NONE',  ( 142.0000000000000284, 43.50000000000000000, -16.45298551864371106 ) ) ;
#76 = PLANE ( 'NONE',  #215 ) ;
#77 = CARTESIAN_POINT ( 'NONE',  ( 142.0000000000000000, 44.91830090537877140, 14.53934291951629731 ) ) ;
#78 = CARTESIAN_POINT ( 'NONE',  ( 142.0000000000000284, 43.49999999999999289, 16.45298551864372172 ) ) ;
#79 = ORGANIZATION ( 'æœª', 'æœª', '' ) ;
#80 = CC_DESIGN_PERSON_AND_ORGANIZATION_ASSIGNMENT ( #263, #381, ( #103 ) ) ;
#81 =( BOUNDED_CURVE ( )  B_SPLINE_CURVE ( 3, ( #100, #96, #181, #245 ),
 .UNSPECIFIED., .F., .T. ) 
 B_SPLINE_CURVE_WITH_KNOTS ( ( 4, 4 ),
 ( 0.000000000000000000, 0.5355266543143882840 ),
 .UNSPECIFIED. ) 
 CURVE ( )  GEOMETRIC_REPRESENTATION_ITEM ( )  RATIONAL_B_SPLINE_CURVE ( ( 1.000000000000000000, 0.9762433840661969287, 0.9762433840661969287, 1.000000000000000000 ) ) 
 REPRESENTATION_ITEM ( '' )  );
#82 = VERTEX_POINT ( 'NONE', #140 ) ;
#83 = EDGE_CURVE ( 'NONE', #64, #82, #8, .T. ) ;
#84 = CALENDAR_DATE ( 2025, 8, 12 ) ;
#85 = VERTEX_POINT ( 'NONE', #343 ) ;
#86 = DATE_AND_TIME ( #203, #359 ) ;
#87 = CARTESIAN_POINT ( 'NONE',  ( 134.0000000000000000, 44.91830090537876430, -14.53934291951628310 ) ) ;
#88 = PERSON_AND_ORGANIZATION_ROLE ( 'classification_officer' ) ;
#89 = ADVANCED_FACE ( 'NONE', ( #286 ), #134, .T. ) ;
#90 = CC_DESIGN_PERSON_AND_ORGANIZATION_ASSIGNMENT ( #29, #88, ( #150 ) ) ;
#91 = VERTEX_POINT ( 'NONE', #284 ) ;
#92 = COORDINATED_UNIVERSAL_TIME_OFFSET ( 8, 0, .AHEAD. ) ;
#93 = ORIENTED_EDGE ( 'NONE', *, *, #385, .T. ) ;
#94 = CARTESIAN_POINT ( 'NONE',  ( 142.0000000000000284, 0.000000000000000000, -16.45298551864371106 ) ) ;
#95 = APPROVAL ( #350, 'æœª' ) ;
#96 = CARTESIAN_POINT ( 'NONE',  ( 134.0000000000000000, 50.00000000000001421, -6.323648207585474523 ) ) ;
#97 = APPLICATION_CONTEXT ( 'configuration controlled 3d designs of mechanical parts and assemblies' ) ;
#98 = CARTESIAN_POINT ( 'NONE',  ( 134.0000000000000000, 43.49999999999999289, -16.45298551864371106 ) ) ;
#99 = ORIENTED_EDGE ( 'NONE', *, *, #239, .T. ) ;
#100 = CARTESIAN_POINT ( 'NONE',  ( 134.0000000000000000, 50.00000000000000000, 0.000000000000000000 ) ) ;
#101 = ORIENTED_EDGE ( 'NONE', *, *, #306, .T. ) ;
#102 = CARTESIAN_POINT ( 'NONE',  ( 142.0000000000000000, 49.62743220903931274, 6.505213034913026604E-15 ) ) ;
#103 = PRODUCT_DEFINITION_FORMATION_WITH_SPECIFIED_SOURCE ( 'ä»', '', #16, .NOT_KNOWN. ) ;
#104 = EDGE_CURVE ( 'NONE', #230, #240, #369, .T. ) ;
#105 = CARTESIAN_POINT ( 'NONE',  ( 134.0000000000000000, 47.60988563772420434, 12.42195369251882298 ) ) ;
#106 = CARTESIAN_POINT ( 'NONE',  ( 150.0000000000000284, 42.99999999999999289, -17.86029115104232190 ) ) ;
#107 = CARTESIAN_POINT ( 'NONE',  ( 142.0000000000000284, 42.99999999999999289, -16.45298551864371106 ) ) ;
#108 = DIRECTION ( 'NONE',  ( -1.000000000000000000, -0.000000000000000000, -0.000000000000000000 ) ) ;
#109 =( LENGTH_UNIT ( ) NAMED_UNIT ( * ) SI_UNIT ( .MILLI., .METRE. ) );
#110 = VECTOR ( 'NONE', #60, 1000.000000000000000 ) ;
#111 = CARTESIAN_POINT ( 'NONE',  ( 142.0000000000000284, 42.99999999999998579, 8.352955596991983393E-15 ) ) ;
#112 = DIRECTION ( 'NONE',  ( 0.000000000000000000, 0.000000000000000000, -1.000000000000000000 ) ) ;
#113 = CARTESIAN_POINT ( 'NONE',  ( 142.0000000000000284, 47.60988563772420434, 12.42195369251881942 ) ) ;
#114 = CARTESIAN_POINT ( 'NONE',  ( 142.0000000000000284, 47.60988563772420434, 12.42195369251882120 ) ) ;
#115 = ORIENTED_EDGE ( 'NONE', *, *, #179, .F. ) ;
#116 = APPROVAL_DATE_TIME ( #267, #201 ) ;
#117 = EDGE_CURVE ( 'NONE', #230, #25, #72, .T. ) ;
#118 = DATE_TIME_ROLE ( 'creation_date' ) ;
#119 = APPROVAL_STATUS ( 'not_yet_approved' ) ;
#120 = ORIENTED_EDGE ( 'NONE', *, *, #196, .F. ) ;
#121 = EDGE_CURVE ( 'NONE', #347, #62, #301, .T. ) ;
#122 = CARTESIAN_POINT ( 'NONE',  ( 0.000000000000000000, 0.000000000000000000, 0.000000000000000000 ) ) ;
#123 = CARTESIAN_POINT ( 'NONE',  ( 134.0000000000000000, 48.10435845464935056, 8.497445854294630507 ) ) ;
#124 =( GEOMETRIC_REPRESENTATION_CONTEXT ( 3 ) GLOBAL_UNCERTAINTY_ASSIGNED_CONTEXT ( ( #193 ) ) GLOBAL_UNIT_ASSIGNED_CONTEXT ( ( #109, #73, #46 ) ) REPRESENTATION_CONTEXT ( 'NONE', 'WORKASPACE' ) );
#125 = APPLICATION_PROTOCOL_DEFINITION ( 'international standard', 'config_control_design', 1994, #97 ) ;
#126 = ORIENTED_EDGE ( 'NONE', *, *, #306, .F. ) ;
#127 = DIRECTION ( 'NONE',  ( 0.000000000000000000, -1.000000000000000000, 0.000000000000000000 ) ) ;
#128 = CARTESIAN_POINT ( 'NONE',  ( 134.0000000000000000, 46.53072790649454049, -11.91036172721130093 ) ) ;
#129 = DESIGN_CONTEXT ( 'detailed design', #97, 'design' ) ;
#130 = ORIENTED_EDGE ( 'NONE', *, *, #117, .T. ) ;
#131 = CARTESIAN_POINT ( 'NONE',  ( 150.0000000000000284, 42.99999999999999289, -17.86029115104232190 ) ) ;
#132 = ORIENTED_EDGE ( 'NONE', *, *, #121, .F. ) ;
#133 = CARTESIAN_POINT ( 'NONE',  ( 142.0000000000000000, 43.98515956857598042, 15.83038783704488672 ) ) ;
#134 = PLANE ( 'NONE',  #70 ) ;
#135 = CARTESIAN_POINT ( 'NONE',  ( 142.0000000000000284, 50.00000000000000000, 0.000000000000000000 ) ) ;
#136 = CARTESIAN_POINT ( 'NONE',  ( 134.0000000000000000, 0.000000000000000000, 0.000000000000000000 ) ) ;
#137 = PRODUCT_RELATED_PRODUCT_CATEGORY ( 'detail', '', ( #16 ) ) ;
#138 = LINE ( 'NONE', #167, #279 ) ;
#139 = FACE_OUTER_BOUND ( 'NONE', #30, .T. ) ;
#140 = CARTESIAN_POINT ( 'NONE',  ( 142.0000000000000284, 42.99999999999999289, -17.86029115104232190 ) ) ;
#141 = CARTESIAN_POINT ( 'NONE',  ( 134.0000000000000000, 50.00000000000000000, 0.000000000000000000 ) ) ;
#142 = CARTESIAN_POINT ( 'NONE',  ( 150.0000000000000284, 42.99999999999998579, 17.86029115104232901 ) ) ;
#143 = LINE ( 'NONE', #198, #303 ) ;
#144 = PERSON_AND_ORGANIZATION ( #28, #79 ) ;
#145 = EDGE_CURVE ( 'NONE', #85, #74, #6, .T. ) ;
#146 = PERSON_AND_ORGANIZATION_ROLE ( 'creator' ) ;
#147 = CARTESIAN_POINT ( 'NONE',  ( 134.0000000000000000, 49.24513558192136742, -4.280416408009572571 ) ) ;
#148 = APPROVAL_STATUS ( 'not_yet_approved' ) ;
#149 = ORIENTED_EDGE ( 'NONE', *, *, #10, .F. ) ;
#150 = SECURITY_CLASSIFICATION ( '', '', #175 ) ;
#151 = EDGE_LOOP ( 'NONE', ( #39, #237, #224, #364 ) ) ;
#152 = DIRECTION ( 'NONE',  ( 1.000000000000000000, -0.000000000000000000, 0.000000000000000000 ) ) ;
#153 = AXIS2_PLACEMENT_3D ( 'NONE', #310, #112, #318 ) ;
#154 = LOCAL_TIME ( 11, 32, 58.00000000000000000, #234 ) ;
#155 = CARTESIAN_POINT ( 'NONE',  ( 142.0000000000000284, 42.99999999999999289, 16.45298551864371817 ) ) ;
#156 = ADVANCED_FACE ( 'NONE', ( #43 ), #161, .T. ) ;
#157 = ORIENTED_EDGE ( 'NONE', *, *, #21, .T. ) ;
#158 = CARTESIAN_POINT ( 'NONE',  ( 134.0000000000000000, 48.10435845464935056, 8.497445854294630507 ) ) ;
#159 = CARTESIAN_POINT ( 'NONE',  ( 142.0000000000000000, 49.62743220903931274, 6.505213034913026604E-15 ) ) ;
#160 = CARTESIAN_POINT ( 'NONE',  ( 142.0000000000000000, 43.49999999999999289, -16.45298551864371106 ) ) ;
#161 = PLANE ( 'NONE',  #172 ) ;
#162 = CARTESIAN_POINT ( 'NONE',  ( 134.0000000000000000, 47.60988563772420434, 12.42195369251882120 ) ) ;
#163 = APPROVAL_PERSON_ORGANIZATION ( #205, #201, #24 ) ;
#164 = CARTESIAN_POINT ( 'NONE',  ( 142.0000000000000284, 50.00000000000000000, 6.323648207585477188 ) ) ;
#165 = DIRECTION ( 'NONE',  ( 0.000000000000000000, 0.000000000000000000, 1.000000000000000000 ) ) ;
#166 = CARTESIAN_POINT ( 'NONE',  ( 142.0000000000000284, 50.00000000000000000, 0.000000000000000000 ) ) ;
#167 = CARTESIAN_POINT ( 'NONE',  ( 134.0000000000000000, -2.283310418327730488E-13, 16.45298551864311776 ) ) ;
#168 = FACE_OUTER_BOUND ( 'NONE', #52, .T. ) ;
#169 = VECTOR ( 'NONE', #108, 1000.000000000000000 ) ;
#170 = PLANE ( 'NONE',  #37 ) ;
#171 = PERSON_AND_ORGANIZATION ( #28, #79 ) ;
#172 = AXIS2_PLACEMENT_3D ( 'NONE', #281, #152, #387 ) ;
#173 = CALENDAR_DATE ( 2025, 8, 12 ) ;
#174 = ORIENTED_EDGE ( 'NONE', *, *, #10, .T. ) ;
#175 = SECURITY_CLASSIFICATION_LEVEL ( 'unclassified' ) ;
#176 = EDGE_LOOP ( 'NONE', ( #130, #248, #115, #297 ) ) ;
#177 = CARTESIAN_POINT ( 'NONE',  ( 142.0000000000000000, 48.10435845464932925, -8.497445854294612744 ) ) ;
#178 =( BOUNDED_SURFACE ( )  B_SPLINE_SURFACE ( 3, 1, ( 
 ( #254, #141 ),
 ( #20, #375 ),
 ( #114, #162 ),
 ( #252, #370 ) ),
 .UNSPECIFIED., .F., .F., .T. ) 
 B_SPLINE_SURFACE_WITH_KNOTS ( ( 4, 4 ),
 ( 2, 2 ),
 ( 0.000000000000000000, 1.000000000000000000 ),
 ( 0.000000000000000000, 1.000000000000000000 ),
 .UNSPECIFIED. ) 
 GEOMETRIC_REPRESENTATION_ITEM ( )  RATIONAL_B_SPLINE_SURFACE ( (
 ( 1.000000000000000000, 1.000000000000000000),
 ( 0.9762433840661968176, 0.9762433840661968176),
 ( 0.9762433840661968176, 0.9762433840661968176),
 ( 1.000000000000000000, 1.000000000000000000) ) ) 
 REPRESENTATION_ITEM ( '' )  SURFACE ( )  );
#179 = EDGE_CURVE ( 'NONE', #240, #336, #3, .T. ) ;
#180 = FACE_OUTER_BOUND ( 'NONE', #333, .T. ) ;
#181 = CARTESIAN_POINT ( 'NONE',  ( 134.0000000000000000, 47.60988563772420434, -12.42195369251881409 ) ) ;
#182 = EDGE_CURVE ( 'NONE', #62, #64, #358, .T. ) ;
#183 = ORIENTED_EDGE ( 'NONE', *, *, #83, .T. ) ;
#184 = CARTESIAN_POINT ( 'NONE',  ( 142.0000000000000000, 43.49999999999998579, 16.45298551864372172 ) ) ;
#185 = VERTEX_POINT ( 'NONE', #61 ) ;
#186 = CARTESIAN_POINT ( 'NONE',  ( 142.0000000000000000, 46.53072790649454049, -11.91036172721130093 ) ) ;
#187 = DIRECTION ( 'NONE',  ( 0.000000000000000000, 1.942547813253950389E-16, -1.000000000000000000 ) ) ;
#188 = APPLICATION_PROTOCOL_DEFINITION ( 'international standard', 'config_control_design', 1994, #283 ) ;
#189 = LINE ( 'NONE', #166, #169 ) ;
#190 = DIRECTION ( 'NONE',  ( 0.000000000000000000, 1.000000000000000000, -0.000000000000000000 ) ) ;
#191 = CARTESIAN_POINT ( 'NONE',  ( 134.0000000000000000, 42.99999999999998579, 17.86029115104232901 ) ) ;
#192 = FACE_OUTER_BOUND ( 'NONE', #275, .T. ) ;
#193 = UNCERTAINTY_MEASURE_WITH_UNIT (LENGTH_MEASURE( 1.000000000000000082E-05 ), #109, 'distance_accuracy_value', 'NONE');
#194 = ORIENTED_EDGE ( 'NONE', *, *, #66, .T. ) ;
#195 = DIRECTION ( 'NONE',  ( 0.000000000000000000, -1.000000000000000000, -1.942547813253950389E-16 ) ) ;
#196 = EDGE_CURVE ( 'NONE', #82, #85, #331, .T. ) ;
#197 = CARTESIAN_POINT ( 'NONE',  ( 134.0000000000000000, 50.00000000000000000, 0.000000000000000000 ) ) ;
#198 = CARTESIAN_POINT ( 'NONE',  ( 134.0000000000000000, 42.99999999999999289, 8.352955596991983393E-15 ) ) ;
#199 = LOCAL_TIME ( 11, 32, 58.00000000000000000, #54 ) ;
#200 = PERSON_AND_ORGANIZATION ( #28, #79 ) ;
#201 = APPROVAL ( #148, 'æœª' ) ;
#202 = ORIENTED_EDGE ( 'NONE', *, *, #182, .F. ) ;
#203 = CALENDAR_DATE ( 2025, 8, 12 ) ;
#204 = ORIENTED_EDGE ( 'NONE', *, *, #242, .F. ) ;
#205 = PERSON_AND_ORGANIZATION ( #28, #79 ) ;
#206 = CARTESIAN_POINT ( 'NONE',  ( 134.0000000000000000, 48.10435845464932925, -8.497445854294612744 ) ) ;
#207 = ORIENTED_EDGE ( 'NONE', *, *, #121, .T. ) ;
#208 = ADVANCED_FACE ( 'NONE', ( #35 ), #386, .F. ) ;
#209 = CARTESIAN_POINT ( 'NONE',  ( 134.0000000000000000, 47.60988563772421855, -12.42195369251882475 ) ) ;
#210 = EDGE_CURVE ( 'NONE', #33, #85, #81, .T. ) ;
#211 = CARTESIAN_POINT ( 'NONE',  ( 134.0000000000000000, 46.53072790649453339, 11.91036172721130626 ) ) ;
#212 = LINE ( 'NONE', #332, #389 ) ;
#213 = ORIENTED_EDGE ( 'NONE', *, *, #242, .T. ) ;
#214 = CARTESIAN_POINT ( 'NONE',  ( 142.0000000000000000, 44.91830090537877140, 14.53934291951629731 ) ) ;
#215 = AXIS2_PLACEMENT_3D ( 'NONE', #285, #51, #340 ) ;
#216 = ORIENTED_EDGE ( 'NONE', *, *, #66, .F. ) ;
#217 = CARTESIAN_POINT ( 'NONE',  ( 134.0000000000000000, 49.62743220903931274, 6.505213034913026604E-15 ) ) ;
#218 = CARTESIAN_POINT ( 'NONE',  ( 142.0000000000000284, 42.99999999999998579, 17.86029115104232901 ) ) ;
#219 = ADVANCED_FACE ( 'NONE', ( #180 ), #68, .F. ) ;
#220 = CARTESIAN_POINT ( 'NONE',  ( 134.0000000000000000, 43.49999999999999289, 16.45298551864372172 ) ) ;
#221 = PLANE ( 'NONE',  #153 ) ;
#222 = VECTOR ( 'NONE', #241, 1000.000000000000000 ) ;
#223 = CARTESIAN_POINT ( 'NONE',  ( 142.0000000000000284, 42.99999999999999289, -16.45298551864371106 ) ) ;
#224 = ORIENTED_EDGE ( 'NONE', *, *, #196, .T. ) ;
#225 = DIRECTION ( 'NONE',  ( -1.000000000000000000, -0.000000000000000000, -0.000000000000000000 ) ) ;
#226 = PLANE ( 'NONE',  #50 ) ;
#227 =( BOUNDED_CURVE ( )  B_SPLINE_CURVE ( 3, ( #191, #105, #348, #45 ),
 .UNSPECIFIED., .F., .T. ) 
 B_SPLINE_CURVE_WITH_KNOTS ( ( 4, 4 ),
 ( 5.747658652865197837, 6.283185307179586232 ),
 .UNSPECIFIED. ) 
 CURVE ( )  GEOMETRIC_REPRESENTATION_ITEM ( )  RATIONAL_B_SPLINE_CURVE ( ( 1.000000000000000000, 0.9762433840661969287, 0.9762433840661969287, 1.000000000000000000 ) ) 
 REPRESENTATION_ITEM ( '' )  );
#228 = DIRECTION ( 'NONE',  ( 0.000000000000000000, -1.000000000000000000, -1.387778780781444256E-14 ) ) ;
#229 = CARTESIAN_POINT ( 'NONE',  ( 142.0000000000000284, 47.60988563772420434, -12.42195369251882298 ) ) ;
#230 = VERTEX_POINT ( 'NONE', #278 ) ;
#231 = DATE_TIME_ROLE ( 'classification_date' ) ;
#232 = PERSON_AND_ORGANIZATION ( #28, #79 ) ;
#233 = CARTESIAN_POINT ( 'NONE',  ( 134.0000000000000000, 43.50000000000000000, -16.45298551864371106 ) ) ;
#234 = COORDINATED_UNIVERSAL_TIME_OFFSET ( 8, 0, .AHEAD. ) ;
#235 = MANIFOLD_SOLID_BREP ( 'Í¹Ì¨-À­Éì60', #261 ) ;
#236 = APPROVAL_PERSON_ORGANIZATION ( #144, #363, #321 ) ;
#237 = ORIENTED_EDGE ( 'NONE', *, *, #335, .F. ) ;
#238 = PERSON_AND_ORGANIZATION_ROLE ( 'design_owner' ) ;
#239 = EDGE_CURVE ( 'NONE', #347, #91, #212, .T. ) ;
#240 = VERTEX_POINT ( 'NONE', #155 ) ;
#241 = DIRECTION ( 'NONE',  ( 0.000000000000000000, -1.000000000000000000, -1.387778780781444256E-14 ) ) ;
#242 = EDGE_CURVE ( 'NONE', #347, #240, #247, .T. ) ;
#243 = CARTESIAN_POINT ( 'NONE',  ( 134.0000000000000000, 50.00000000000001421, -6.323648207585476300 ) ) ;
#244 = VECTOR ( 'NONE', #313, 1000.000000000000000 ) ;
#245 = CARTESIAN_POINT ( 'NONE',  ( 134.0000000000000000, 43.00000000000000000, -17.86029115104232190 ) ) ;
#246 = ORIENTED_EDGE ( 'NONE', *, *, #117, .F. ) ;
#247 = LINE ( 'NONE', #362, #222 ) ;
#248 = ORIENTED_EDGE ( 'NONE', *, *, #376, .F. ) ;
#249 = CARTESIAN_POINT ( 'NONE',  ( 142.0000000000000000, 50.00000000000001421, -6.323648207585476300 ) ) ;
#250 = CARTESIAN_POINT ( 'NONE',  ( 134.0000000000000000, 42.99999999999999289, 8.352955596991983393E-15 ) ) ;
#251 = CARTESIAN_POINT ( 'NONE',  ( 142.0000000000000000, 46.53072790649453339, 11.91036172721130626 ) ) ;
#252 = CARTESIAN_POINT ( 'NONE',  ( 142.0000000000000284, 42.99999999999998579, 17.86029115104232901 ) ) ;
#253 = CARTESIAN_POINT ( 'NONE',  ( 142.0000000000000284, 43.50000000000000000, -16.45298551864371106 ) ) ;
#254 = CARTESIAN_POINT ( 'NONE',  ( 142.0000000000000284, 50.00000000000000000, 0.000000000000000000 ) ) ;
#255 = VECTOR ( 'NONE', #190, 1000.000000000000000 ) ;
#256 = CARTESIAN_POINT ( 'NONE',  ( 142.0000000000000000, 49.24513558192137452, 4.280416408009580564 ) ) ;
#257 = FACE_OUTER_BOUND ( 'NONE', #273, .T. ) ;
#258 = CARTESIAN_POINT ( 'NONE',  ( 134.0000000000000000, 0.000000000000000000, -16.45298551864371106 ) ) ;
#259 = MECHANICAL_CONTEXT ( 'NONE', #283, 'mechanical' ) ;
#260 = COORDINATED_UNIVERSAL_TIME_OFFSET ( 8, 0, .AHEAD. ) ;
#261 = CLOSED_SHELL ( 'NONE', ( #377, #156, #89, #208, #388, #219, #320, #266, #270 ) ) ;
#262 = ORIENTED_EDGE ( 'NONE', *, *, #239, .F. ) ;
#263 = PERSON_AND_ORGANIZATION ( #28, #79 ) ;
#264 = CARTESIAN_POINT ( 'NONE',  ( 134.0000000000000000, 49.62743220903931274, 6.505213034913026604E-15 ) ) ;
#265 =( BOUNDED_CURVE ( )  B_SPLINE_CURVE ( 3, ( #135, #164, #113, #218 ),
 .UNSPECIFIED., .F., .T. ) 
 B_SPLINE_CURVE_WITH_KNOTS ( ( 4, 4 ),
 ( 0.000000000000000000, 0.5355266543143886171 ),
 .UNSPECIFIED. ) 
 CURVE ( )  GEOMETRIC_REPRESENTATION_ITEM ( )  RATIONAL_B_SPLINE_CURVE ( ( 1.000000000000000000, 0.9762433840661968176, 0.9762433840661968176, 1.000000000000000000 ) ) 
 REPRESENTATION_ITEM ( '' )  );
#266 = ADVANCED_FACE ( 'NONE', ( #192 ), #221, .F. ) ;
#267 = DATE_AND_TIME ( #84, #296 ) ;
#268 = AXIS2_PLACEMENT_3D ( 'NONE', #122, #351, #322 ) ;
#269 = ORIENTED_EDGE ( 'NONE', *, *, #376, .T. ) ;
#270 = ADVANCED_FACE ( 'NONE', ( #139 ), #170, .T. ) ;
#271 = CARTESIAN_POINT ( 'NONE',  ( 142.0000000000000284, 42.99999999999998579, -17.86029115104232901 ) ) ;
#272 = CARTESIAN_POINT ( 'NONE',  ( 142.0000000000000000, 47.60988563772421855, -12.42195369251882475 ) ) ;
#273 = EDGE_LOOP ( 'NONE', ( #93, #357, #120, #4 ) ) ;
#274 = CARTESIAN_POINT ( 'NONE',  ( 142.0000000000000284, 42.99999999999999289, 16.45298551864371817 ) ) ;
#275 = EDGE_LOOP ( 'NONE', ( #194, #126, #307, #202 ) ) ;
#276 = CARTESIAN_POINT ( 'NONE',  ( 142.0000000000000000, 49.24513558192137452, 4.280416408009580564 ) ) ;
#277 = CARTESIAN_POINT ( 'NONE',  ( 142.0000000000000000, 49.24513558192136742, -4.280416408009572571 ) ) ;
#278 = CARTESIAN_POINT ( 'NONE',  ( 142.0000000000000284, 42.99999999999998579, 17.86029115104232901 ) ) ;
#279 = VECTOR ( 'NONE', #228, 1000.000000000000000 ) ;
#280 = CC_DESIGN_SECURITY_CLASSIFICATION ( #150, ( #103 ) ) ;
#281 = CARTESIAN_POINT ( 'NONE',  ( 142.0000000000000284, 0.000000000000000000, 0.000000000000000000 ) ) ;
#282 = LINE ( 'NONE', #258, #255 ) ;
#283 = APPLICATION_CONTEXT ( 'configuration controlled 3d designs of mechanical parts and assemblies' ) ;
#284 = CARTESIAN_POINT ( 'NONE',  ( 134.0000000000000000, 43.49999999999999289, 16.45298551864372172 ) ) ;
#285 = CARTESIAN_POINT ( 'NONE',  ( 142.0000000000000284, -2.283310418327730488E-13, 16.45298551864311776 ) ) ;
#286 = FACE_OUTER_BOUND ( 'NONE', #176, .T. ) ;
#287 = CARTESIAN_POINT ( 'NONE',  ( 142.0000000000000284, 42.99999999999999289, -17.86029115104232190 ) ) ;
#288 = LINE ( 'NONE', #311, #329 ) ;
#289 = DIRECTION ( 'NONE',  ( -1.000000000000000000, 0.000000000000000000, 0.000000000000000000 ) ) ;
#290 = CARTESIAN_POINT ( 'NONE',  ( 134.0000000000000000, 42.99999999999999289, 16.45298551864370395 ) ) ;
#291 = PERSON_AND_ORGANIZATION_ROLE ( 'creator' ) ;
#292 = VECTOR ( 'NONE', #187, 1000.000000000000000 ) ;
#293 = DATE_AND_TIME ( #173, #199 ) ;
#294 = ORIENTED_EDGE ( 'NONE', *, *, #48, .T. ) ;
#295 = EDGE_LOOP ( 'NONE', ( #380, #204, #207, #384, #183, #58, #41 ) ) ;
#296 = LOCAL_TIME ( 11, 32, 58.00000000000000000, #92 ) ;
#297 = ORIENTED_EDGE ( 'NONE', *, *, #104, .F. ) ;
#298 = CARTESIAN_POINT ( 'NONE',  ( 134.0000000000000000, 43.49999999999998579, 16.45298551864372172 ) ) ;
#299 = PRODUCT_DEFINITION ( 'æœ', '', #103, #129 ) ;
#300 = CARTESIAN_POINT ( 'NONE',  ( 134.0000000000000000, 48.10435845464932925, -8.497445854294612744 ) ) ;
#301 = B_SPLINE_CURVE_WITH_KNOTS ( 'NONE', 3,
 ( #14, #338, #77, #251, #317, #256, #159, #277, #374, #309, #345, #12, #253 ),
 .UNSPECIFIED., .F., .F.,
 ( 4, 1, 1, 1, 1, 1, 1, 1, 1, 1, 4 ),
 ( -0.4993627676531124937, -0.4369424216964734597, -0.3745220757398344258, -0.2496813838265563301, -0.1248406919132782344, -1.665334536937734811E-16, 0.1248406919132779569, 0.2496813838265560248, 0.3745220757398340927, 0.4369424216964731267, 0.4993627676531121606 ),
 .UNSPECIFIED. ) ;
#302 = DIRECTION ( 'NONE',  ( -1.000000000000000000, -0.000000000000000000, -0.000000000000000000 ) ) ;
#303 = VECTOR ( 'NONE', #312, 1000.000000000000000 ) ;
#304 = ORIENTED_EDGE ( 'NONE', *, *, #145, .T. ) ;
#305 = CARTESIAN_POINT ( 'NONE',  ( 142.0000000000000000, 46.53072790649453339, 11.91036172721130626 ) ) ;
#306 = EDGE_CURVE ( 'NONE', #74, #55, #282, .T. ) ;
#307 = ORIENTED_EDGE ( 'NONE', *, *, #385, .F. ) ;
#308 = CARTESIAN_POINT ( 'NONE',  ( 142.0000000000000284, 50.00000000000000000, 0.000000000000000000 ) ) ;
#309 = CARTESIAN_POINT ( 'NONE',  ( 142.0000000000000000, 46.53072790649454049, -11.91036172721130093 ) ) ;
#310 = CARTESIAN_POINT ( 'NONE',  ( 142.0000000000000284, 0.000000000000000000, -16.45298551864371106 ) ) ;
#311 = CARTESIAN_POINT ( 'NONE',  ( 142.0000000000000284, 43.50000000000000000, -16.45298551864371106 ) ) ;
#312 = DIRECTION ( 'NONE',  ( 0.000000000000000000, -1.942547813253950142E-16, 1.000000000000000000 ) ) ;
#313 = DIRECTION ( 'NONE',  ( 0.000000000000000000, 1.942547813253950389E-16, -1.000000000000000000 ) ) ;
#314 = CARTESIAN_POINT ( 'NONE',  ( 134.0000000000000000, 44.91830090537877140, 14.53934291951629731 ) ) ;
#315 = CARTESIAN_POINT ( 'NONE',  ( 150.0000000000000284, 42.99999999999999289, -17.86029115104232190 ) ) ;
#316 = APPROVAL_PERSON_ORGANIZATION ( #171, #95, #324 ) ;
#317 = CARTESIAN_POINT ( 'NONE',  ( 142.0000000000000000, 48.10435845464935056, 8.497445854294630507 ) ) ;
#318 = DIRECTION ( 'NONE',  ( -1.000000000000000000, 0.000000000000000000, -0.000000000000000000 ) ) ;
#319 = ORIENTED_EDGE ( 'NONE', *, *, #179, .T. ) ;
#320 = ADVANCED_FACE ( 'NONE', ( #9 ), #76, .T. ) ;
#321 = APPROVAL_ROLE ( '' ) ;
#322 = DIRECTION ( 'NONE',  ( 1.000000000000000000, 0.000000000000000000, 0.000000000000000000 ) ) ;
#323 = ORIENTED_EDGE ( 'NONE', *, *, #17, .F. ) ;
#324 = APPROVAL_ROLE ( '' ) ;
#325 = CARTESIAN_POINT ( 'NONE',  ( 134.0000000000000000, 46.53072790649453339, 11.91036172721130626 ) ) ;
#326 = B_SPLINE_CURVE_WITH_KNOTS ( 'NONE', 3,
 ( #233, #352, #87, #27, #206, #147, #264, #382, #123, #325, #314, #371, #220 ),
 .UNSPECIFIED., .F., .F.,
 ( 4, 1, 1, 1, 1, 1, 1, 1, 1, 1, 4 ),
 ( -0.4993627676531124937, -0.4369424216964734597, -0.3745220757398344258, -0.2496813838265563301, -0.1248406919132782344, -1.665334536937734811E-16, 0.1248406919132779569, 0.2496813838265560248, 0.3745220757398340927, 0.4369424216964731267, 0.4993627676531121606 ),
 .UNSPECIFIED. ) ;
#327 = ORIENTED_EDGE ( 'NONE', *, *, #210, .T. ) ;
#328 = CARTESIAN_POINT ( 'NONE',  ( 142.0000000000000000, 48.10435845464935056, 8.497445854294630507 ) ) ;
#329 = VECTOR ( 'NONE', #19, 1000.000000000000000 ) ;
#330 = LOCAL_TIME ( 11, 32, 58.00000000000000000, #260 ) ;
#331 = LINE ( 'NONE', #131, #341 ) ;
#332 = CARTESIAN_POINT ( 'NONE',  ( 142.0000000000000284, 43.49999999999999289, 16.45298551864372172 ) ) ;
#333 = EDGE_LOOP ( 'NONE', ( #99, #149, #216, #132 ) ) ;
#334 = VECTOR ( 'NONE', #127, 1000.000000000000000 ) ;
#335 = EDGE_CURVE ( 'NONE', #82, #185, #367, .T. ) ;
#336 = VERTEX_POINT ( 'NONE', #290 ) ;
#337 = CARTESIAN_POINT ( 'NONE',  ( 142.0000000000000000, 44.91830090537876430, -14.53934291951628310 ) ) ;
#338 = CARTESIAN_POINT ( 'NONE',  ( 142.0000000000000000, 43.98515956857598042, 15.83038783704488672 ) ) ;
#339 = CARTESIAN_POINT ( 'NONE',  ( 134.0000000000000000, 42.99999999999998579, 17.86029115104232901 ) ) ;
#340 = DIRECTION ( 'NONE',  ( 0.000000000000000000, 1.000000000000000000, 1.387778780781444256E-14 ) ) ;
#341 = VECTOR ( 'NONE', #302, 1000.000000000000000 ) ;
#342 = VECTOR ( 'NONE', #225, 1000.000000000000000 ) ;
#343 = CARTESIAN_POINT ( 'NONE',  ( 134.0000000000000000, 43.00000000000000000, -17.86029115104232190 ) ) ;
#344 = CARTESIAN_POINT ( 'NONE',  ( 142.0000000000000284, 50.00000000000000000, 0.000000000000000000 ) ) ;
#345 = CARTESIAN_POINT ( 'NONE',  ( 142.0000000000000000, 44.91830090537876430, -14.53934291951628310 ) ) ;
#346 = DIRECTION ( 'NONE',  ( 0.000000000000000000, 1.942547813253950389E-16, -1.000000000000000000 ) ) ;
#347 = VERTEX_POINT ( 'NONE', #78 ) ;
#348 = CARTESIAN_POINT ( 'NONE',  ( 134.0000000000000000, 50.00000000000001421, 6.323648207585476300 ) ) ;
#349 = DIRECTION ( 'NONE',  ( 0.000000000000000000, -1.000000000000000000, -1.942547813253950389E-16 ) ) ;
#350 = APPROVAL_STATUS ( 'not_yet_approved' ) ;
#351 = DIRECTION ( 'NONE',  ( 0.000000000000000000, 0.000000000000000000, 1.000000000000000000 ) ) ;
#352 = CARTESIAN_POINT ( 'NONE',  ( 134.0000000000000000, 43.98515956857598752, -15.83038783704487606 ) ) ;
#353 = VECTOR ( 'NONE', #15, 1000.000000000000000 ) ;
#354 = APPROVAL_DATE_TIME ( #293, #95 ) ;
#355 = ORIENTED_EDGE ( 'NONE', *, *, #21, .F. ) ;
#356 = DATE_AND_TIME ( #379, #330 ) ;
#357 = ORIENTED_EDGE ( 'NONE', *, *, #145, .F. ) ;
#358 = LINE ( 'NONE', #94, #334 ) ;
#359 = LOCAL_TIME ( 11, 32, 58.00000000000000000, #26 ) ;
#360 = CARTESIAN_POINT ( 'NONE',  ( 134.0000000000000000, 43.98515956857598752, -15.83038783704487606 ) ) ;
#361 = ORIENTED_EDGE ( 'NONE', *, *, #31, .F. ) ;
#362 = CARTESIAN_POINT ( 'NONE',  ( 142.0000000000000284, -2.283310418327730488E-13, 16.45298551864311776 ) ) ;
#363 = APPROVAL ( #119, 'æœª' ) ;
#364 = ORIENTED_EDGE ( 'NONE', *, *, #210, .F. ) ;
#365 = CARTESIAN_POINT ( 'NONE',  ( 134.0000000000000000, 43.98515956857598042, 15.83038783704488672 ) ) ;
#366 = DIRECTION ( 'NONE',  ( 0.000000000000000000, -1.942547813253950142E-16, 1.000000000000000000 ) ) ;
#367 =( BOUNDED_CURVE ( )  B_SPLINE_CURVE ( 3, ( #287, #229, #13, #344 ),
 .UNSPECIFIED., .F., .T. ) 
 B_SPLINE_CURVE_WITH_KNOTS ( ( 4, 4 ),
 ( 5.747658652865197837, 6.283185307179586232 ),
 .UNSPECIFIED. ) 
 CURVE ( )  GEOMETRIC_REPRESENTATION_ITEM ( )  RATIONAL_B_SPLINE_CURVE ( ( 1.000000000000000000, 0.9762433840661969287, 0.9762433840661969287, 1.000000000000000000 ) ) 
 REPRESENTATION_ITEM ( '' )  );
#368 = CC_DESIGN_PERSON_AND_ORGANIZATION_ASSIGNMENT ( #53, #146, ( #103 ) ) ;
#369 = LINE ( 'NONE', #111, #292 ) ;
#370 = CARTESIAN_POINT ( 'NONE',  ( 134.0000000000000000, 42.99999999999998579, 17.86029115104232901 ) ) ;
#371 = CARTESIAN_POINT ( 'NONE',  ( 134.0000000000000000, 43.98515956857598042, 15.83038783704488672 ) ) ;
#372 = LINE ( 'NONE', #107, #353 ) ;
#373 = VECTOR ( 'NONE', #366, 1000.000000000000000 ) ;
#374 = CARTESIAN_POINT ( 'NONE',  ( 142.0000000000000000, 48.10435845464932925, -8.497445854294612744 ) ) ;
#375 = CARTESIAN_POINT ( 'NONE',  ( 134.0000000000000000, 50.00000000000000000, 6.323648207585477188 ) ) ;
#376 = EDGE_CURVE ( 'NONE', #336, #25, #143, .T. ) ;
#377 = ADVANCED_FACE ( 'NONE', ( #168 ), #178, .F. ) ;
#378 = APPROVAL_DATE_TIME ( #86, #363 ) ;
#379 = CALENDAR_DATE ( 2025, 8, 12 ) ;
#380 = ORIENTED_EDGE ( 'NONE', *, *, #104, .T. ) ;
#381 = PERSON_AND_ORGANIZATION_ROLE ( 'design_supplier' ) ;
#382 = CARTESIAN_POINT ( 'NONE',  ( 134.0000000000000000, 49.24513558192137452, 4.280416408009580564 ) ) ;
#383 = SHAPE_DEFINITION_REPRESENTATION ( #11, #47 ) ;
#384 = ORIENTED_EDGE ( 'NONE', *, *, #182, .T. ) ;
#385 = EDGE_CURVE ( 'NONE', #64, #74, #372, .T. ) ;
#386 =( BOUNDED_SURFACE ( )  B_SPLINE_SURFACE ( 3, 1, ( 
 ( #271, #7 ),
 ( #272, #209 ),
 ( #249, #243 ),
 ( #308, #59 ) ),
 .UNSPECIFIED., .F., .F., .T. ) 
 B_SPLINE_SURFACE_WITH_KNOTS ( ( 4, 4 ),
 ( 2, 2 ),
 ( 0.000000000000000000, 1.000000000000000000 ),
 ( 0.000000000000000000, 1.000000000000000000 ),
 .UNSPECIFIED. ) 
 GEOMETRIC_REPRESENTATION_ITEM ( )  RATIONAL_B_SPLINE_SURFACE ( (
 ( 1.000000000000000000, 1.000000000000000000),
 ( 0.9762433840661969287, 0.9762433840661969287),
 ( 0.9762433840661969287, 0.9762433840661969287),
 ( 1.000000000000000000, 1.000000000000000000) ) ) 
 REPRESENTATION_ITEM ( '' )  SURFACE ( )  );
#387 = DIRECTION ( 'NONE',  ( 0.000000000000000000, 0.000000000000000000, -1.000000000000000000 ) ) ;
#388 = ADVANCED_FACE ( 'NONE', ( #257 ), #226, .T. ) ;
#389 = VECTOR ( 'NONE', #38, 1000.000000000000000 ) ;
#390 = CARTESIAN_POINT ( 'NONE',  ( 142.0000000000000000, 49.24513558192136742, -4.280416408009572571 ) ) ;
ENDSEC;
END-ISO-10303-21;
