ISO-10303-21;
HEADER;
FILE_DESCRIPTION (( 'STEP AP203' ),
    '1' );
FILE_NAME ('¶Ë¸Ç1.STEP',
    '2025-12-08T03:29:32',
    ( '' ),
    ( '' ),
    'SwSTEP 2.0',
    'SolidWorks 2024',
    '' );
FILE_SCHEMA (( 'CONFIG_CONTROL_DESIGN' ));
ENDSEC;

DATA;
#1 = CARTESIAN_POINT ( 'NONE',  ( 142.2000000000000455, 48.14145337114130285, 8.028688964538641670 ) ) ;
#2 = LINE ( 'NONE', #140, #58 ) ;
#3 = VERTEX_POINT ( 'NONE', #109 ) ;
#4 = LINE ( 'NONE', #366, #264 ) ;
#5 = VECTOR ( 'NONE', #66, 1000.000000000000000 ) ;
#6 = EDGE_LOOP ( 'NONE', ( #153, #412, #191, #362 ) ) ;
#7 = CARTESIAN_POINT ( 'NONE',  ( 128.2000000000000171, 50.00000000000000000, 0.000000000000000000 ) ) ;
#8 = COORDINATED_UNIVERSAL_TIME_OFFSET ( 8, 0, .AHEAD. ) ;
#9 = DIRECTION ( 'NONE',  ( -1.000000000000000000, -0.000000000000000000, -0.000000000000000000 ) ) ;
#10 = CARTESIAN_POINT ( 'NONE',  ( 142.2000000000000171, 45.25548252808150096, -14.03665214296742825 ) ) ;
#11 = CARTESIAN_POINT ( 'NONE',  ( 128.2000000000000171, 42.99999999999999289, 16.45298551864371817 ) ) ;
#12 = EDGE_CURVE ( 'NONE', #350, #59, #360, .T. ) ;
#13 = CARTESIAN_POINT ( 'NONE',  ( 128.1999999999999886, 46.72089888065385566, -11.47119558129330663 ) ) ;
#14 = EDGE_CURVE ( 'NONE', #256, #208, #266, .T. ) ;
#15 = LINE ( 'NONE', #17, #64 ) ;
#16 = EDGE_CURVE ( 'NONE', #59, #3, #234, .T. ) ;
#17 = CARTESIAN_POINT ( 'NONE',  ( 128.2000000000000171, 42.99999999999999289, -17.86029115104232190 ) ) ;
#18 = DATE_AND_TIME ( #174, #325 ) ;
#19 = CARTESIAN_POINT ( 'NONE',  ( 128.2000000000000455, 49.24513558192137452, 4.280416408009580564 ) ) ;
#20 = ORIENTED_EDGE ( 'NONE', *, *, #338, .T. ) ;
#21 = COORDINATED_UNIVERSAL_TIME_OFFSET ( 8, 0, .AHEAD. ) ;
#22 = CARTESIAN_POINT ( 'NONE',  ( 128.1999999999999886, 49.49765538430525424, -1.525544859529713637 ) ) ;
#23 = CARTESIAN_POINT ( 'NONE',  ( 128.2000000000000171, 50.00000000000001421, -6.323648207585476300 ) ) ;
#24 = VECTOR ( 'NONE', #211, 1000.000000000000000 ) ;
#25 = ORIENTED_EDGE ( 'NONE', *, *, #89, .T. ) ;
#26 = CC_DESIGN_PERSON_AND_ORGANIZATION_ASSIGNMENT ( #99, #233, ( #274 ) ) ;
#27 = CARTESIAN_POINT ( 'NONE',  ( 128.2000000000000455, 45.25548252808150096, 14.03665214296744423 ) ) ;
#28 = ORIENTED_EDGE ( 'NONE', *, *, #391, .T. ) ;
#29 = CARTESIAN_POINT ( 'NONE',  ( 142.2000000000000171, 42.99999999999999289, -17.86029115104232190 ) ) ;
#30 = ADVANCED_FACE ( 'NONE', ( #40 ), #396, .T. ) ;
#31 = LOCAL_TIME ( 11, 29, 32.00000000000000000, #67 ) ;
#32 = CARTESIAN_POINT ( 'NONE',  ( 142.2000000000000171, 49.50112879718196979, -0.7068437924030168684 ) ) ;
#33 = CC_DESIGN_DATE_AND_TIME_ASSIGNMENT ( #268, #101, ( #282 ) ) ;
#34 = ORIENTED_EDGE ( 'NONE', *, *, #164, .F. ) ;
#35 = LINE ( 'NONE', #339, #220 ) ;
#36 = APPROVAL ( #306, 'æœª' ) ;
#37 = APPROVAL_PERSON_ORGANIZATION ( #311, #402, #120 ) ;
#38 = LINE ( 'NONE', #97, #272 ) ;
#39 = APPROVAL_STATUS ( 'not_yet_approved' ) ;
#40 = FACE_OUTER_BOUND ( 'NONE', #125, .T. ) ;
#41 = CARTESIAN_POINT ( 'NONE',  ( 128.2000000000000455, 43.49999999999998579, 16.45298551864372172 ) ) ;
#42 =( BOUNDED_CURVE ( )  B_SPLINE_CURVE ( 3, ( #305, #238, #364, #72 ),
 .UNSPECIFIED., .F., .F. ) 
 B_SPLINE_CURVE_WITH_KNOTS ( ( 4, 4 ),
 ( 5.747658652865197837, 6.283185307179586232 ),
 .UNSPECIFIED. ) 
 CURVE ( )  GEOMETRIC_REPRESENTATION_ITEM ( )  RATIONAL_B_SPLINE_CURVE ( ( 1.000000000000000000, 0.9762433840661969287, 0.9762433840661969287, 1.000000000000000000 ) ) 
 REPRESENTATION_ITEM ( '' )  );
#43 = CARTESIAN_POINT ( 'NONE',  ( 142.1999999999999886, 43.49999999999998579, 16.45298551864372172 ) ) ;
#44 = VECTOR ( 'NONE', #263, 1000.000000000000000 ) ;
#45 = CC_DESIGN_PERSON_AND_ORGANIZATION_ASSIGNMENT ( #188, #215, ( #410 ) ) ;
#46 = DESIGN_CONTEXT ( 'detailed design', #399, 'design' ) ;
#47 = CARTESIAN_POINT ( 'NONE',  ( 128.2000000000000171, 45.25251092206046621, -14.04070671953100735 ) ) ;
#48 = CARTESIAN_POINT ( 'NONE',  ( 142.1999999999999886, 43.49999999999999289, -16.45298551864371106 ) ) ;
#49 = PRODUCT_DEFINITION_SHAPE ( 'NONE', 'NONE',  #282 ) ;
#50 = FACE_OUTER_BOUND ( 'NONE', #123, .T. ) ;
#51 = VERTEX_POINT ( 'NONE', #333 ) ;
#52 = COORDINATED_UNIVERSAL_TIME_OFFSET ( 8, 0, .AHEAD. ) ;
#53 = CARTESIAN_POINT ( 'NONE',  ( 142.1999999999999886, 44.91830090537877140, 14.53934291951629731 ) ) ;
#54 = VERTEX_POINT ( 'NONE', #243 ) ;
#55 = CARTESIAN_POINT ( 'NONE',  ( 128.2000000000000171, 48.95166661311758105, -5.168311817200597957 ) ) ;
#56 = ORIENTED_EDGE ( 'NONE', *, *, #260, .T. ) ;
#57 = CARTESIAN_POINT ( 'NONE',  ( 142.2000000000000171, 48.42200362334196484, -7.299761274803539202 ) ) ;
#58 = VECTOR ( 'NONE', #134, 1000.000000000000000 ) ;
#59 = VERTEX_POINT ( 'NONE', #68 ) ;
#60 = CARTESIAN_POINT ( 'NONE',  ( 128.2000000000000171, 47.60988563772421855, -12.42195369251882475 ) ) ;
#61 = EDGE_CURVE ( 'NONE', #203, #51, #38, .T. ) ;
#62 = CARTESIAN_POINT ( 'NONE',  ( 128.2000000000000171, 43.49999999999998579, 16.45298551864372172 ) ) ;
#63 = CARTESIAN_POINT ( 'NONE',  ( 142.2000000000000171, 46.72089888065386987, 11.47119558129331374 ) ) ;
#64 = VECTOR ( 'NONE', #284, 1000.000000000000000 ) ;
#65 = CC_DESIGN_APPROVAL ( #36, ( #273 ) ) ;
#66 = DIRECTION ( 'NONE',  ( 0.000000000000000000, 0.000000000000000000, -1.000000000000000000 ) ) ;
#67 = COORDINATED_UNIVERSAL_TIME_OFFSET ( 8, 0, .AHEAD. ) ;
#68 = CARTESIAN_POINT ( 'NONE',  ( 142.2000000000000171, 42.99999999999999289, 16.45298551864371817 ) ) ;
#69 = PERSON_AND_ORGANIZATION_ROLE ( 'creator' ) ;
#70 = DIRECTION ( 'NONE',  ( 0.000000000000000000, 4.930623273411181915E-15, -1.000000000000000000 ) ) ;
#71 = AXIS2_PLACEMENT_3D ( 'NONE', #173, #269, #102 ) ;
#72 = CARTESIAN_POINT ( 'NONE',  ( 128.2000000000000171, 50.00000000000000000, 0.000000000000000000 ) ) ;
#73 = CARTESIAN_POINT ( 'NONE',  ( 142.2000000000000739, 47.63524227586335513, -9.399852967665777825 ) ) ;
#74 = CARTESIAN_POINT ( 'NONE',  ( 142.2000000000000171, 42.99999999999999289, 16.45298551864371817 ) ) ;
#75 = LINE ( 'NONE', #168, #24 ) ;
#76 = CLOSED_SHELL ( 'NONE', ( #196, #114, #276, #133, #171, #30, #185, #197, #329 ) ) ;
#77 = CARTESIAN_POINT ( 'NONE',  ( 142.2000000000000171, 50.00000000000000000, 0.000000000000000000 ) ) ;
#78 = CARTESIAN_POINT ( 'NONE',  ( 142.1999999999999886, 48.10435845464932925, -8.497445854294612744 ) ) ;
#79 = APPROVAL_ROLE ( '' ) ;
#80 = CARTESIAN_POINT ( 'NONE',  ( 128.1999999999999602, 49.50112879718196979, 0.7068437924030090969 ) ) ;
#81 = B_SPLINE_SURFACE_WITH_KNOTS ( 'NONE', 3, 1, ( 
 ( #43, #41 ),
 ( #213, #176 ),
 ( #53, #404 ),
 ( #245, #214 ),
 ( #144, #118 ),
 ( #121, #19 ),
 ( #179, #217 ),
 ( #372, #403 ),
 ( #78, #223 ),
 ( #342, #341 ),
 ( #112, #216 ),
 ( #308, #406 ),
 ( #48, #316 ) ),
 .UNSPECIFIED., .F., .F., .F.,
 ( 4, 1, 1, 1, 1, 1, 1, 1, 1, 1, 4 ),
 ( 2, 2 ),
 ( -0.4993627676531124937, -0.4369424216964734597, -0.3745220757398344258, -0.2496813838265563301, -0.1248406919132782483, -1.665334536937734811E-16, 0.1248406919132779153, 0.2496813838265559971, 0.3745220757398340927, 0.4369424216964731267, 0.4993627676531121606 ),
 ( 0.000000000000000000, 1.000000000000000000 ),
 .UNSPECIFIED. ) ;
#82 = ORIENTED_EDGE ( 'NONE', *, *, #14, .F. ) ;
#83 = CARTESIAN_POINT ( 'NONE',  ( 128.2000000000000171, 44.42071311899945840, -15.27144878220623880 ) ) ;
#84 = CC_DESIGN_APPROVAL ( #108, ( #282 ) ) ;
#85 = APPROVAL_PERSON_ORGANIZATION ( #315, #36, #79 ) ;
#86 = CARTESIAN_POINT ( 'NONE',  ( 128.2000000000000455, 48.14145337114130996, -8.028688964538645223 ) ) ;
#87 = ORIENTED_EDGE ( 'NONE', *, *, #190, .T. ) ;
#88 = CARTESIAN_POINT ( 'NONE',  ( 128.2000000000000171, 42.99999999999999289, -16.45298551864371106 ) ) ;
#89 = EDGE_CURVE ( 'NONE', #3, #321, #170, .T. ) ;
#90 = ORIENTED_EDGE ( 'NONE', *, *, #14, .T. ) ;
#91 = CARTESIAN_POINT ( 'NONE',  ( 128.2000000000000171, 42.99999999999998579, -17.86029115104232901 ) ) ;
#92 = CARTESIAN_POINT ( 'NONE',  ( 142.2000000000000455, 48.95166661311760947, 5.168311817200591740 ) ) ;
#93 = CARTESIAN_POINT ( 'NONE',  ( 142.2000000000000171, 42.99999999999998579, 17.86029115104232901 ) ) ;
#94 = ORIENTED_EDGE ( 'NONE', *, *, #338, .F. ) ;
#95 = VECTOR ( 'NONE', #296, 1000.000000000000000 ) ;
#96 = EDGE_CURVE ( 'NONE', #203, #350, #177, .T. ) ;
#97 = CARTESIAN_POINT ( 'NONE',  ( 142.0000000000000284, 50.00000000000000000, 0.000000000000000000 ) ) ;
#98 = EDGE_CURVE ( 'NONE', #350, #208, #75, .T. ) ;
#99 = PERSON_AND_ORGANIZATION ( #209, #344 ) ;
#100 = CARTESIAN_POINT ( 'NONE',  ( 142.2000000000000171, 50.00000000000000000, 6.323648207585477188 ) ) ;
#101 = DATE_TIME_ROLE ( 'creation_date' ) ;
#102 = DIRECTION ( 'NONE',  ( 0.000000000000000000, 1.942547813253950389E-16, -1.000000000000000000 ) ) ;
#103 =( BOUNDED_SURFACE ( )  B_SPLINE_SURFACE ( 3, 1, ( 
 ( #77, #145 ),
 ( #182, #309 ),
 ( #346, #278 ),
 ( #189, #378 ) ),
 .UNSPECIFIED., .F., .F., .T. ) 
 B_SPLINE_SURFACE_WITH_KNOTS ( ( 4, 4 ),
 ( 2, 2 ),
 ( 0.000000000000000000, 1.000000000000000000 ),
 ( 0.000000000000000000, 1.000000000000000000 ),
 .UNSPECIFIED. ) 
 GEOMETRIC_REPRESENTATION_ITEM ( )  RATIONAL_B_SPLINE_SURFACE ( (
 ( 1.000000000000000000, 1.000000000000000000),
 ( 0.9762433840661968176, 0.9762433840661968176),
 ( 0.9762433840661968176, 0.9762433840661968176),
 ( 1.000000000000000000, 1.000000000000000000) ) ) 
 REPRESENTATION_ITEM ( '' )  SURFACE ( )  );
#104 = CARTESIAN_POINT ( 'NONE',  ( 128.2000000000000171, 50.00000000000001421, -6.323648207585476300 ) ) ;
#105 = VECTOR ( 'NONE', #230, 1000.000000000000000 ) ;
#106 = CARTESIAN_POINT ( 'NONE',  ( 142.2000000000000171, 50.00000000000000000, 0.000000000000000000 ) ) ;
#107 = DIRECTION ( 'NONE',  ( 0.000000000000000000, 0.000000000000000000, 1.000000000000000000 ) ) ;
#108 = APPROVAL ( #39, 'æœª' ) ;
#109 = CARTESIAN_POINT ( 'NONE',  ( 142.2000000000000171, 43.49999999999998579, 16.45298551864372172 ) ) ;
#110 = APPROVAL_DATE_TIME ( #148, #402 ) ;
#111 = PLANE ( 'NONE',  #250 ) ;
#112 = CARTESIAN_POINT ( 'NONE',  ( 142.1999999999999886, 44.91830090537876430, -14.53934291951628310 ) ) ;
#113 = EDGE_CURVE ( 'NONE', #54, #291, #35, .T. ) ;
#114 = ADVANCED_FACE ( 'NONE', ( #302 ), #367, .T. ) ;
#115 = CARTESIAN_POINT ( 'NONE',  ( 128.2000000000000739, 48.48287339374259375, -6.961466906536745824 ) ) ;
#116 = ORIENTED_EDGE ( 'NONE', *, *, #16, .T. ) ;
#117 = SECURITY_CLASSIFICATION_LEVEL ( 'unclassified' ) ;
#118 = CARTESIAN_POINT ( 'NONE',  ( 128.2000000000000455, 48.10435845464935056, 8.497445854294630507 ) ) ;
#119 = EDGE_LOOP ( 'NONE', ( #135, #156, #34, #319 ) ) ;
#120 = APPROVAL_ROLE ( '' ) ;
#121 = CARTESIAN_POINT ( 'NONE',  ( 142.1999999999999886, 49.24513558192137452, 4.280416408009580564 ) ) ;
#122 = LOCAL_TIME ( 11, 29, 32.00000000000000000, #52 ) ;
#123 = EDGE_LOOP ( 'NONE', ( #207, #377, #127, #187 ) ) ;
#124 = FACE_OUTER_BOUND ( 'NONE', #253, .T. ) ;
#125 = EDGE_LOOP ( 'NONE', ( #28, #294, #314, #298 ) ) ;
#126 = LINE ( 'NONE', #88, #95 ) ;
#127 = ORIENTED_EDGE ( 'NONE', *, *, #258, .F. ) ;
#128 = CARTESIAN_POINT ( 'NONE',  ( 142.2000000000000171, 43.49999999999998579, 16.45298551864372172 ) ) ;
#129 = ADVANCED_BREP_SHAPE_REPRESENTATION ( '\X2\7aef76d6\X0\1', ( #201, #184 ), #357 ) ;
#130 = CC_DESIGN_DATE_AND_TIME_ASSIGNMENT ( #151, #375, ( #273 ) ) ;
#131 = PLANE ( 'NONE',  #289 ) ;
#132 = CARTESIAN_POINT ( 'NONE',  ( 142.2000000000000171, 49.46711150784911837, -1.460144909503669375 ) ) ;
#133 = ADVANCED_FACE ( 'NONE', ( #143 ), #275, .T. ) ;
#134 = DIRECTION ( 'NONE',  ( 0.000000000000000000, -1.000000000000000000, -6.938893903907318308E-15 ) ) ;
#135 = ORIENTED_EDGE ( 'NONE', *, *, #96, .F. ) ;
#136 = LINE ( 'NONE', #303, #5 ) ;
#137 = CARTESIAN_POINT ( 'NONE',  ( 142.2000000000000171, 42.99999999999998579, 17.86029115104232901 ) ) ;
#138 = PERSON_AND_ORGANIZATION ( #209, #344 ) ;
#139 = DIRECTION ( 'NONE',  ( 0.000000000000000000, 1.942547813253950389E-16, -1.000000000000000000 ) ) ;
#140 = CARTESIAN_POINT ( 'NONE',  ( 128.2000000000000171, 43.49999999999998579, 16.45298551864372172 ) ) ;
#141 = DIRECTION ( 'NONE',  ( 0.000000000000000000, 1.387778780781444256E-14, -1.000000000000000000 ) ) ;
#142 = CARTESIAN_POINT ( 'NONE',  ( 142.2000000000000171, 46.36071464182303714, -12.10089759432177559 ) ) ;
#143 = FACE_OUTER_BOUND ( 'NONE', #6, .T. ) ;
#144 = CARTESIAN_POINT ( 'NONE',  ( 142.1999999999999886, 48.10435845464935056, 8.497445854294630507 ) ) ;
#145 = CARTESIAN_POINT ( 'NONE',  ( 128.2000000000000171, 50.00000000000000000, 0.000000000000000000 ) ) ;
#146 = VECTOR ( 'NONE', #200, 1000.000000000000000 ) ;
#147 = CARTESIAN_POINT ( 'NONE',  ( 128.2000000000000171, 47.35842259883723671, -10.13294313500131949 ) ) ;
#148 = DATE_AND_TIME ( #219, #280 ) ;
#149 = CARTESIAN_POINT ( 'NONE',  ( 128.2000000000000171, 49.50000000000000000, 4.987329993433320396E-15 ) ) ;
#150 = ORIENTED_EDGE ( 'NONE', *, *, #363, .F. ) ;
#151 = DATE_AND_TIME ( #212, #122 ) ;
#152 = DIRECTION ( 'NONE',  ( -1.000000000000000000, 0.000000000000000000, 0.000000000000000000 ) ) ;
#153 = ORIENTED_EDGE ( 'NONE', *, *, #258, .T. ) ;
#154 = CARTESIAN_POINT ( 'NONE',  ( 142.2000000000000171, 47.60988563772420434, -12.42195369251882298 ) ) ;
#155 = VECTOR ( 'NONE', #70, 1000.000000000000000 ) ;
#156 = ORIENTED_EDGE ( 'NONE', *, *, #61, .T. ) ;
#157 = CARTESIAN_POINT ( 'NONE',  ( 128.2000000000000739, 47.34162115326213893, 10.09250235468508805 ) ) ;
#158 = ORIENTED_EDGE ( 'NONE', *, *, #391, .F. ) ;
#159 = CARTESIAN_POINT ( 'NONE',  ( 142.2000000000000171, 50.00000000000000000, 0.000000000000000000 ) ) ;
#160 = CARTESIAN_POINT ( 'NONE',  ( 142.0000000000000284, 42.99999999999999289, -16.45298551864371106 ) ) ;
#161 = APPROVAL_PERSON_ORGANIZATION ( #167, #108, #169 ) ;
#162 = CARTESIAN_POINT ( 'NONE',  ( 142.2000000000000171, 45.25251092206048753, 14.04070671953100735 ) ) ;
#163 = ORIENTED_EDGE ( 'NONE', *, *, #98, .T. ) ;
#164 = EDGE_CURVE ( 'NONE', #208, #51, #42, .T. ) ;
#165 =( LENGTH_UNIT ( ) NAMED_UNIT ( * ) SI_UNIT ( .MILLI., .METRE. ) );
#166 = CARTESIAN_POINT ( 'NONE',  ( 150.0000000000000284, 42.99999999999999289, -17.86029115104232190 ) ) ;
#167 = PERSON_AND_ORGANIZATION ( #209, #344 ) ;
#168 = CARTESIAN_POINT ( 'NONE',  ( 150.0000000000000284, 42.99999999999998579, 17.86029115104232901 ) ) ;
#169 = APPROVAL_ROLE ( '' ) ;
#170 = LINE ( 'NONE', #304, #239 ) ;
#171 = ADVANCED_FACE ( 'NONE', ( #400 ), #81, .F. ) ;
#172 =( NAMED_UNIT ( * ) SI_UNIT ( $, .STERADIAN. ) SOLID_ANGLE_UNIT ( ) );
#173 = CARTESIAN_POINT ( 'NONE',  ( 150.0000000000000284, 42.99999999999999289, -17.86029115104232190 ) ) ;
#174 = CALENDAR_DATE ( 2025, 8, 12 ) ;
#175 = LOCAL_TIME ( 11, 29, 32.00000000000000000, #8 ) ;
#176 = CARTESIAN_POINT ( 'NONE',  ( 128.2000000000000455, 43.98515956857598042, 15.83038783704488672 ) ) ;
#177 =( BOUNDED_CURVE ( )  B_SPLINE_CURVE ( 3, ( #106, #100, #236, #205 ),
 .UNSPECIFIED., .F., .F. ) 
 B_SPLINE_CURVE_WITH_KNOTS ( ( 4, 4 ),
 ( 0.000000000000000000, 0.5355266543143886171 ),
 .UNSPECIFIED. ) 
 CURVE ( )  GEOMETRIC_REPRESENTATION_ITEM ( )  RATIONAL_B_SPLINE_CURVE ( ( 1.000000000000000000, 0.9762433840661968176, 0.9762433840661968176, 1.000000000000000000 ) ) 
 REPRESENTATION_ITEM ( '' )  );
#178 = CC_DESIGN_PERSON_AND_ORGANIZATION_ASSIGNMENT ( #279, #180, ( #273 ) ) ;
#179 = CARTESIAN_POINT ( 'NONE',  ( 142.1999999999999886, 49.62743220903931274, 6.505213034913026604E-15 ) ) ;
#180 = PERSON_AND_ORGANIZATION_ROLE ( 'classification_officer' ) ;
#181 =( BOUNDED_SURFACE ( )  B_SPLINE_SURFACE ( 3, 1, ( 
 ( #415, #91 ),
 ( #224, #60 ),
 ( #416, #23 ),
 ( #323, #226 ) ),
 .UNSPECIFIED., .F., .F., .F. ) 
 B_SPLINE_SURFACE_WITH_KNOTS ( ( 4, 4 ),
 ( 2, 2 ),
 ( 0.000000000000000000, 1.000000000000000000 ),
 ( 0.000000000000000000, 1.000000000000000000 ),
 .UNSPECIFIED. ) 
 GEOMETRIC_REPRESENTATION_ITEM ( )  RATIONAL_B_SPLINE_SURFACE ( (
 ( 1.000000000000000000, 1.000000000000000000),
 ( 0.9762433840661969287, 0.9762433840661969287),
 ( 0.9762433840661969287, 0.9762433840661969287),
 ( 1.000000000000000000, 1.000000000000000000) ) ) 
 REPRESENTATION_ITEM ( '' )  SURFACE ( )  );
#182 = CARTESIAN_POINT ( 'NONE',  ( 142.2000000000000455, 50.00000000000000000, 6.323648207585477188 ) ) ;
#183 = SHAPE_DEFINITION_REPRESENTATION ( #49, #129 ) ;
#184 = AXIS2_PLACEMENT_3D ( 'NONE', #398, #107, #326 ) ;
#185 = ADVANCED_FACE ( 'NONE', ( #50 ), #111, .F. ) ;
#186 = CARTESIAN_POINT ( 'NONE',  ( 142.0000000000000284, 0.000000000000000000, -16.45298551864371106 ) ) ;
#187 = ORIENTED_EDGE ( 'NONE', *, *, #113, .F. ) ;
#188 = PERSON_AND_ORGANIZATION ( #209, #344 ) ;
#189 = CARTESIAN_POINT ( 'NONE',  ( 142.2000000000000171, 42.99999999999998579, 17.86029115104232901 ) ) ;
#190 = EDGE_CURVE ( 'NONE', #249, #383, #15, .T. ) ;
#191 = ORIENTED_EDGE ( 'NONE', *, *, #374, .F. ) ;
#192 = CARTESIAN_POINT ( 'NONE',  ( 142.1999999999999886, 49.22764261960788446, -3.684658318593629911 ) ) ;
#193 = ORIENTED_EDGE ( 'NONE', *, *, #352, .F. ) ;
#194 = FACE_OUTER_BOUND ( 'NONE', #195, .T. ) ;
#195 = EDGE_LOOP ( 'NONE', ( #20, #407, #379, #116, #347, #285, #348 ) ) ;
#196 = ADVANCED_FACE ( 'NONE', ( #247 ), #103, .F. ) ;
#197 = ADVANCED_FACE ( 'NONE', ( #401 ), #244, .T. ) ;
#198 = LINE ( 'NONE', #318, #105 ) ;
#199 = CARTESIAN_POINT ( 'NONE',  ( 128.2000000000000739, 46.70489317446685362, 11.44148775768747583 ) ) ;
#200 = DIRECTION ( 'NONE',  ( -1.000000000000000000, -0.000000000000000000, -0.000000000000000000 ) ) ;
#201 = MANIFOLD_SOLID_BREP ( 'Í¹Ì¨-À­Éì61', #76 ) ;
#202 = CARTESIAN_POINT ( 'NONE',  ( 128.2000000000000171, 42.99999999999999289, -16.45298551864371106 ) ) ;
#203 = VERTEX_POINT ( 'NONE', #340 ) ;
#204 = EDGE_CURVE ( 'NONE', #218, #321, #395, .T. ) ;
#205 = CARTESIAN_POINT ( 'NONE',  ( 142.2000000000000171, 42.99999999999998579, 17.86029115104232901 ) ) ;
#206 = CALENDAR_DATE ( 2025, 8, 12 ) ;
#207 = ORIENTED_EDGE ( 'NONE', *, *, #328, .T. ) ;
#208 = VERTEX_POINT ( 'NONE', #389 ) ;
#209 = PERSON ( 'æœª', 'æœª', 'æœª', ('æœª'), ('æœª'), ('æœª') ) ;
#210 = LINE ( 'NONE', #330, #385 ) ;
#211 = DIRECTION ( 'NONE',  ( -1.000000000000000000, -0.000000000000000000, -0.000000000000000000 ) ) ;
#212 = CALENDAR_DATE ( 2025, 8, 12 ) ;
#213 = CARTESIAN_POINT ( 'NONE',  ( 142.1999999999999886, 43.98515956857598042, 15.83038783704488672 ) ) ;
#214 = CARTESIAN_POINT ( 'NONE',  ( 128.2000000000000455, 46.53072790649453339, 11.91036172721130626 ) ) ;
#215 = PERSON_AND_ORGANIZATION_ROLE ( 'design_supplier' ) ;
#216 = CARTESIAN_POINT ( 'NONE',  ( 128.2000000000000455, 44.91830090537876430, -14.53934291951628310 ) ) ;
#217 = CARTESIAN_POINT ( 'NONE',  ( 128.2000000000000455, 49.62743220903931274, 6.505213034913026604E-15 ) ) ;
#218 = VERTEX_POINT ( 'NONE', #292 ) ;
#219 = CALENDAR_DATE ( 2025, 8, 12 ) ;
#220 = VECTOR ( 'NONE', #241, 1000.000000000000000 ) ;
#221 = DIRECTION ( 'NONE',  ( -1.000000000000000000, 0.000000000000000000, -0.000000000000000000 ) ) ;
#222 = EDGE_LOOP ( 'NONE', ( #25, #327, #317, #193 ) ) ;
#223 = CARTESIAN_POINT ( 'NONE',  ( 128.2000000000000455, 48.10435845464932925, -8.497445854294612744 ) ) ;
#224 = CARTESIAN_POINT ( 'NONE',  ( 142.2000000000000171, 47.60988563772421855, -12.42195369251882475 ) ) ;
#225 = CC_DESIGN_PERSON_AND_ORGANIZATION_ASSIGNMENT ( #345, #368, ( #410 ) ) ;
#226 = CARTESIAN_POINT ( 'NONE',  ( 128.2000000000000171, 50.00000000000000000, 0.000000000000000000 ) ) ;
#227 = AXIS2_PLACEMENT_3D ( 'NONE', #149, #152, #370 ) ;
#228 = CARTESIAN_POINT ( 'NONE',  ( 142.2000000000000171, 0.000000000000000000, 0.000000000000000000 ) ) ;
#229 = CARTESIAN_POINT ( 'NONE',  ( 128.2000000000000171, 43.49999999999998579, 16.45298551864372172 ) ) ;
#230 = DIRECTION ( 'NONE',  ( -1.000000000000000000, -0.000000000000000000, -0.000000000000000000 ) ) ;
#231 = EDGE_LOOP ( 'NONE', ( #163, #82, #158, #409 ) ) ;
#232 = VECTOR ( 'NONE', #394, 1000.000000000000000 ) ;
#233 = PERSON_AND_ORGANIZATION_ROLE ( 'design_owner' ) ;
#234 = LINE ( 'NONE', #74, #44 ) ;
#235 = CALENDAR_DATE ( 2025, 8, 12 ) ;
#236 = CARTESIAN_POINT ( 'NONE',  ( 142.2000000000000171, 47.60988563772420434, 12.42195369251881942 ) ) ;
#237 = CARTESIAN_POINT ( 'NONE',  ( 142.2000000000000171, 43.49999999999999289, -16.45298551864371106 ) ) ;
#238 = CARTESIAN_POINT ( 'NONE',  ( 128.2000000000000171, 47.60988563772420434, 12.42195369251882298 ) ) ;
#239 = VECTOR ( 'NONE', #9, 1000.000000000000000 ) ;
#240 = CARTESIAN_POINT ( 'NONE',  ( 142.2000000000000171, 46.70489317446688915, -11.44148775768749005 ) ) ;
#241 = DIRECTION ( 'NONE',  ( 0.000000000000000000, -1.000000000000000000, 0.000000000000000000 ) ) ;
#242 = CARTESIAN_POINT ( 'NONE',  ( 142.2000000000000739, 47.34162115326214604, -10.09250235468509871 ) ) ;
#243 = CARTESIAN_POINT ( 'NONE',  ( 142.2000000000000171, 43.49999999999999289, -16.45298551864371106 ) ) ;
#244 = PLANE ( 'NONE',  #227 ) ;
#245 = CARTESIAN_POINT ( 'NONE',  ( 142.1999999999999886, 46.53072790649453339, 11.91036172721130626 ) ) ;
#246 = CARTESIAN_POINT ( 'NONE',  ( 128.1999999999999886, 48.78363691861370910, -5.888383386382891160 ) ) ;
#247 = FACE_OUTER_BOUND ( 'NONE', #119, .T. ) ;
#248 = APPLICATION_CONTEXT ( 'configuration controlled 3d designs of mechanical parts and assemblies' ) ;
#249 = VERTEX_POINT ( 'NONE', #382 ) ;
#250 = AXIS2_PLACEMENT_3D ( 'NONE', #186, #307, #221 ) ;
#251 = CARTESIAN_POINT ( 'NONE',  ( 128.2000000000000455, 48.82226826774433448, 5.871454704240194111 ) ) ;
#252 = CC_DESIGN_APPROVAL ( #402, ( #410 ) ) ;
#253 = EDGE_LOOP ( 'NONE', ( #358, #94, #300, #150 ) ) ;
#254 = CARTESIAN_POINT ( 'NONE',  ( 142.1999999999999886, 48.37449170929912157, 7.317989715295366793 ) ) ;
#255 = CARTESIAN_POINT ( 'NONE',  ( 128.1999999999999886, 47.63524227586336934, 9.399852967665770720 ) ) ;
#256 = VERTEX_POINT ( 'NONE', #351 ) ;
#257 = CARTESIAN_POINT ( 'NONE',  ( 142.2000000000000455, 44.42071311899946551, 15.27144878220624946 ) ) ;
#258 = EDGE_CURVE ( 'NONE', #291, #383, #411, .T. ) ;
#259 = DIRECTION ( 'NONE',  ( 0.000000000000000000, 0.000000000000000000, -1.000000000000000000 ) ) ;
#260 = EDGE_CURVE ( 'NONE', #383, #218, #126, .T. ) ;
#261 = CARTESIAN_POINT ( 'NONE',  ( 142.1999999999999318, 49.33014641848231463, -2.948310120482342978 ) ) ;
#262 = APPLICATION_PROTOCOL_DEFINITION ( 'international standard', 'config_control_design', 1994, #248 ) ;
#263 = DIRECTION ( 'NONE',  ( 0.000000000000000000, 1.000000000000000000, 6.938893903907222067E-15 ) ) ;
#264 = VECTOR ( 'NONE', #265, 1000.000000000000000 ) ;
#265 = DIRECTION ( 'NONE',  ( -1.000000000000000000, -0.000000000000000000, -0.000000000000000000 ) ) ;
#266 = LINE ( 'NONE', #11, #232 ) ;
#267 =( BOUNDED_CURVE ( )  B_SPLINE_CURVE ( 3, ( #29, #154, #297, #159 ),
 .UNSPECIFIED., .F., .T. ) 
 B_SPLINE_CURVE_WITH_KNOTS ( ( 4, 4 ),
 ( 5.747658652865197837, 6.283185307179586232 ),
 .UNSPECIFIED. ) 
 CURVE ( )  GEOMETRIC_REPRESENTATION_ITEM ( )  RATIONAL_B_SPLINE_CURVE ( ( 1.000000000000000000, 0.9762433840661969287, 0.9762433840661969287, 1.000000000000000000 ) ) 
 REPRESENTATION_ITEM ( '' )  );
#268 = DATE_AND_TIME ( #206, #175 ) ;
#269 = DIRECTION ( 'NONE',  ( 0.000000000000000000, -1.000000000000000000, -1.942547813253950389E-16 ) ) ;
#270 = CARTESIAN_POINT ( 'NONE',  ( 142.2000000000000171, 44.42152832611964186, -15.27040263966691747 ) ) ;
#271 = DIRECTION ( 'NONE',  ( 0.000000000000000000, 1.000000000000000000, 1.387778780781444256E-14 ) ) ;
#272 = VECTOR ( 'NONE', #331, 1000.000000000000000 ) ;
#273 = SECURITY_CLASSIFICATION ( '', '', #117 ) ;
#274 = PRODUCT ( '\X2\7aef76d6\X0\1', '\X2\7aef76d6\X0\1', '', ( #299 ) ) ;
#275 = PLANE ( 'NONE',  #71 ) ;
#276 = ADVANCED_FACE ( 'NONE', ( #124 ), #181, .F. ) ;
#277 = CARTESIAN_POINT ( 'NONE',  ( 128.2000000000000455, 48.01657288565542814, -8.383341553002221502 ) ) ;
#278 = CARTESIAN_POINT ( 'NONE',  ( 128.1999999999999886, 47.60988563772420434, 12.42195369251882120 ) ) ;
#279 = PERSON_AND_ORGANIZATION ( #209, #344 ) ;
#280 = LOCAL_TIME ( 11, 29, 32.00000000000000000, #283 ) ;
#281 = CARTESIAN_POINT ( 'NONE',  ( 128.2000000000000455, 48.37449170929910736, -7.317989715295368569 ) ) ;
#282 = PRODUCT_DEFINITION ( 'æœ', '', #410, #46 ) ;
#283 = COORDINATED_UNIVERSAL_TIME_OFFSET ( 8, 0, .AHEAD. ) ;
#284 = DIRECTION ( 'NONE',  ( 0.000000000000000000, 0.000000000000000000, 1.000000000000000000 ) ) ;
#285 = ORIENTED_EDGE ( 'NONE', *, *, #113, .T. ) ;
#286 = APPROVAL_DATE_TIME ( #18, #36 ) ;
#287 = CARTESIAN_POINT ( 'NONE',  ( 128.2000000000000171, 49.33014641848230042, 2.948310120482330543 ) ) ;
#288 = ORIENTED_EDGE ( 'NONE', *, *, #164, .T. ) ;
#289 = AXIS2_PLACEMENT_3D ( 'NONE', #228, #322, #259 ) ;
#290 = CARTESIAN_POINT ( 'NONE',  ( 142.2000000000000171, 42.99999999999999289, -17.86029115104232190 ) ) ;
#291 = VERTEX_POINT ( 'NONE', #388 ) ;
#292 = CARTESIAN_POINT ( 'NONE',  ( 128.2000000000000171, 43.49999999999999289, -16.45298551864371106 ) ) ;
#293 = CC_DESIGN_PERSON_AND_ORGANIZATION_ASSIGNMENT ( #138, #69, ( #282 ) ) ;
#294 = ORIENTED_EDGE ( 'NONE', *, *, #384, .F. ) ;
#295 = CARTESIAN_POINT ( 'NONE',  ( 128.2000000000000455, 46.36071464182303004, 12.10089759432178091 ) ) ;
#296 = DIRECTION ( 'NONE',  ( 0.000000000000000000, 1.000000000000000000, 0.000000000000000000 ) ) ;
#297 = CARTESIAN_POINT ( 'NONE',  ( 142.2000000000000171, 50.00000000000001421, -6.323648207585476300 ) ) ;
#298 = ORIENTED_EDGE ( 'NONE', *, *, #16, .F. ) ;
#299 = MECHANICAL_CONTEXT ( 'NONE', #248, 'mechanical' ) ;
#300 = ORIENTED_EDGE ( 'NONE', *, *, #374, .T. ) ;
#301 = DATE_AND_TIME ( #235, #31 ) ;
#302 = FACE_OUTER_BOUND ( 'NONE', #231, .T. ) ;
#303 = CARTESIAN_POINT ( 'NONE',  ( 142.2000000000000171, 42.99999999999999289, -16.45298551864371106 ) ) ;
#304 = CARTESIAN_POINT ( 'NONE',  ( 142.0000000000000284, 43.49999999999999289, 16.45298551864372172 ) ) ;
#305 = CARTESIAN_POINT ( 'NONE',  ( 128.2000000000000171, 42.99999999999998579, 17.86029115104232901 ) ) ;
#306 = APPROVAL_STATUS ( 'not_yet_approved' ) ;
#307 = DIRECTION ( 'NONE',  ( 0.000000000000000000, 0.000000000000000000, -1.000000000000000000 ) ) ;
#308 = CARTESIAN_POINT ( 'NONE',  ( 142.1999999999999886, 43.98515956857598752, -15.83038783704487606 ) ) ;
#309 = CARTESIAN_POINT ( 'NONE',  ( 128.1999999999999886, 50.00000000000000000, 6.323648207585477188 ) ) ;
#310 = PRODUCT_RELATED_PRODUCT_CATEGORY ( 'detail', '', ( #274 ) ) ;
#311 = PERSON_AND_ORGANIZATION ( #209, #344 ) ;
#312 = UNCERTAINTY_MEASURE_WITH_UNIT (LENGTH_MEASURE( 1.000000000000000082E-05 ), #165, 'distance_accuracy_value', 'NONE');
#313 = CARTESIAN_POINT ( 'NONE',  ( 128.2000000000000171, 49.46711150784912547, 1.460144909503659605 ) ) ;
#314 = ORIENTED_EDGE ( 'NONE', *, *, #89, .F. ) ;
#315 = PERSON_AND_ORGANIZATION ( #209, #344 ) ;
#316 = CARTESIAN_POINT ( 'NONE',  ( 128.2000000000000455, 43.49999999999999289, -16.45298551864371106 ) ) ;
#317 = ORIENTED_EDGE ( 'NONE', *, *, #328, .F. ) ;
#318 = CARTESIAN_POINT ( 'NONE',  ( 142.0000000000000284, 43.50000000000000000, -16.45298551864371106 ) ) ;
#319 = ORIENTED_EDGE ( 'NONE', *, *, #98, .F. ) ;
#320 = CARTESIAN_POINT ( 'NONE',  ( 128.2000000000001023, 44.42152832611963476, 15.27040263966693523 ) ) ;
#321 = VERTEX_POINT ( 'NONE', #229 ) ;
#322 = DIRECTION ( 'NONE',  ( 1.000000000000000000, 0.000000000000000000, 0.000000000000000000 ) ) ;
#323 = CARTESIAN_POINT ( 'NONE',  ( 142.2000000000000171, 50.00000000000000000, 0.000000000000000000 ) ) ;
#324 = CARTESIAN_POINT ( 'NONE',  ( 142.2000000000000739, 48.01657288565541393, 8.383341553002212621 ) ) ;
#325 = LOCAL_TIME ( 11, 29, 32.00000000000000000, #21 ) ;
#326 = DIRECTION ( 'NONE',  ( 1.000000000000000000, 0.000000000000000000, 0.000000000000000000 ) ) ;
#327 = ORIENTED_EDGE ( 'NONE', *, *, #204, .F. ) ;
#328 = EDGE_CURVE ( 'NONE', #54, #218, #198, .T. ) ;
#329 = ADVANCED_FACE ( 'NONE', ( #194 ), #131, .T. ) ;
#330 = CARTESIAN_POINT ( 'NONE',  ( 142.0000000000000284, 42.99999999999999289, 16.45298551864371817 ) ) ;
#331 = DIRECTION ( 'NONE',  ( -1.000000000000000000, -0.000000000000000000, -0.000000000000000000 ) ) ;
#332 = CARTESIAN_POINT ( 'NONE',  ( 128.2000000000000171, 47.60988563772420434, -12.42195369251881409 ) ) ;
#333 = CARTESIAN_POINT ( 'NONE',  ( 128.2000000000000171, 50.00000000000000000, 0.000000000000000000 ) ) ;
#334 = AXIS2_PLACEMENT_3D ( 'NONE', #166, #369, #139 ) ;
#335 = APPLICATION_PROTOCOL_DEFINITION ( 'international standard', 'config_control_design', 1994, #399 ) ;
#336 = ORIENTED_EDGE ( 'NONE', *, *, #363, .T. ) ;
#337 =( NAMED_UNIT ( * ) PLANE_ANGLE_UNIT ( ) SI_UNIT ( $, .RADIAN. ) );
#338 = EDGE_CURVE ( 'NONE', #343, #203, #267, .T. ) ;
#339 = CARTESIAN_POINT ( 'NONE',  ( 142.2000000000000171, 43.49999999999999289, -16.45298551864371106 ) ) ;
#340 = CARTESIAN_POINT ( 'NONE',  ( 142.2000000000000171, 50.00000000000000000, 0.000000000000000000 ) ) ;
#341 = CARTESIAN_POINT ( 'NONE',  ( 128.2000000000000455, 46.53072790649454049, -11.91036172721130093 ) ) ;
#342 = CARTESIAN_POINT ( 'NONE',  ( 142.1999999999999886, 46.53072790649454049, -11.91036172721130093 ) ) ;
#343 = VERTEX_POINT ( 'NONE', #290 ) ;
#344 = ORGANIZATION ( 'æœª', 'æœª', '' ) ;
#345 = PERSON_AND_ORGANIZATION ( #209, #344 ) ;
#346 = CARTESIAN_POINT ( 'NONE',  ( 142.2000000000000455, 47.60988563772420434, 12.42195369251882120 ) ) ;
#347 = ORIENTED_EDGE ( 'NONE', *, *, #352, .T. ) ;
#348 = ORIENTED_EDGE ( 'NONE', *, *, #371, .T. ) ;
#349 = CARTESIAN_POINT ( 'NONE',  ( 142.2000000000000171, 48.82226826774427764, -5.871454704240200329 ) ) ;
#350 = VERTEX_POINT ( 'NONE', #93 ) ;
#351 = CARTESIAN_POINT ( 'NONE',  ( 128.2000000000000171, 42.99999999999999289, 16.45298551864371817 ) ) ;
#352 = EDGE_CURVE ( 'NONE', #3, #54, #390, .T. ) ;
#353 =( BOUNDED_CURVE ( )  B_SPLINE_CURVE ( 3, ( #7, #104, #332, #359 ),
 .UNSPECIFIED., .F., .F. ) 
 B_SPLINE_CURVE_WITH_KNOTS ( ( 4, 4 ),
 ( 0.000000000000000000, 0.5355266543143883951 ),
 .UNSPECIFIED. ) 
 CURVE ( )  GEOMETRIC_REPRESENTATION_ITEM ( )  RATIONAL_B_SPLINE_CURVE ( ( 1.000000000000000000, 0.9762433840661969287, 0.9762433840661969287, 1.000000000000000000 ) ) 
 REPRESENTATION_ITEM ( '' )  );
#354 = CARTESIAN_POINT ( 'NONE',  ( 142.2000000000000171, 49.49765538430526846, 1.525544859529710529 ) ) ;
#355 = CARTESIAN_POINT ( 'NONE',  ( 128.2000000000000171, 48.42200362334199326, 7.299761274803531208 ) ) ;
#356 = CARTESIAN_POINT ( 'NONE',  ( 142.2000000000001023, 48.78363691861374463, 5.888383386382890272 ) ) ;
#357 =( GEOMETRIC_REPRESENTATION_CONTEXT ( 3 ) GLOBAL_UNCERTAINTY_ASSIGNED_CONTEXT ( ( #312 ) ) GLOBAL_UNIT_ASSIGNED_CONTEXT ( ( #165, #337, #172 ) ) REPRESENTATION_CONTEXT ( 'NONE', 'WORKASPACE' ) );
#358 = ORIENTED_EDGE ( 'NONE', *, *, #61, .F. ) ;
#359 = CARTESIAN_POINT ( 'NONE',  ( 128.2000000000000171, 42.99999999999999289, -17.86029115104232190 ) ) ;
#360 = LINE ( 'NONE', #137, #155 ) ;
#361 = APPROVAL_DATE_TIME ( #301, #108 ) ;
#362 = ORIENTED_EDGE ( 'NONE', *, *, #371, .F. ) ;
#363 = EDGE_CURVE ( 'NONE', #51, #249, #353, .T. ) ;
#364 = CARTESIAN_POINT ( 'NONE',  ( 128.2000000000000171, 50.00000000000001421, 6.323648207585476300 ) ) ;
#365 = AXIS2_PLACEMENT_3D ( 'NONE', #392, #141, #271 ) ;
#366 = CARTESIAN_POINT ( 'NONE',  ( 150.0000000000000284, 42.99999999999999289, -17.86029115104232190 ) ) ;
#367 = PLANE ( 'NONE',  #334 ) ;
#368 = PERSON_AND_ORGANIZATION_ROLE ( 'creator' ) ;
#369 = DIRECTION ( 'NONE',  ( 0.000000000000000000, -1.000000000000000000, -1.942547813253950389E-16 ) ) ;
#370 = DIRECTION ( 'NONE',  ( 0.000000000000000000, 0.000000000000000000, 1.000000000000000000 ) ) ;
#371 = EDGE_CURVE ( 'NONE', #291, #343, #136, .T. ) ;
#372 = CARTESIAN_POINT ( 'NONE',  ( 142.1999999999999886, 49.24513558192136742, -4.280416408009572571 ) ) ;
#373 = CARTESIAN_POINT ( 'NONE',  ( 128.1999999999999886, 49.35751882810791358, -2.993934264379010557 ) ) ;
#374 = EDGE_CURVE ( 'NONE', #343, #249, #4, .T. ) ;
#375 = DATE_TIME_ROLE ( 'classification_date' ) ;
#376 = CARTESIAN_POINT ( 'NONE',  ( 128.2000000000000171, 43.49999999999999289, -16.45298551864371106 ) ) ;
#377 = ORIENTED_EDGE ( 'NONE', *, *, #260, .F. ) ;
#378 = CARTESIAN_POINT ( 'NONE',  ( 128.2000000000000171, 42.99999999999998579, 17.86029115104232901 ) ) ;
#379 = ORIENTED_EDGE ( 'NONE', *, *, #12, .T. ) ;
#380 = CARTESIAN_POINT ( 'NONE',  ( 142.2000000000000455, 49.35751882810792779, 2.993934264379004340 ) ) ;
#381 = EDGE_LOOP ( 'NONE', ( #397, #414, #90, #288, #336, #87, #56 ) ) ;
#382 = CARTESIAN_POINT ( 'NONE',  ( 128.2000000000000171, 42.99999999999999289, -17.86029115104232190 ) ) ;
#383 = VERTEX_POINT ( 'NONE', #202 ) ;
#384 = EDGE_CURVE ( 'NONE', #321, #256, #2, .T. ) ;
#385 = VECTOR ( 'NONE', #393, 1000.000000000000000 ) ;
#386 = CC_DESIGN_SECURITY_CLASSIFICATION ( #273, ( #410 ) ) ;
#387 = CARTESIAN_POINT ( 'NONE',  ( 142.2000000000000455, 48.48287339374260796, 6.961466906536743160 ) ) ;
#388 = CARTESIAN_POINT ( 'NONE',  ( 142.2000000000000171, 42.99999999999999289, -16.45298551864371106 ) ) ;
#389 = CARTESIAN_POINT ( 'NONE',  ( 128.2000000000000171, 42.99999999999998579, 17.86029115104232901 ) ) ;
#390 = B_SPLINE_CURVE_WITH_KNOTS ( 'NONE', 3,
 ( #128, #257, #162, #63, #413, #324, #1, #254, #387, #356, #92, #380, #354, #32, #132, #261, #192, #349, #57, #73, #242, #240, #142, #10, #270, #237 ),
 .UNSPECIFIED., .F., .F.,
 ( 4, 2, 2, 2, 2, 2, 2, 2, 2, 2, 2, 2, 4 ),
 ( 0.000000000000000000, 0.004438809008816526659, 0.008877618017633053318, 0.009987320269837181297, 0.01109702252204130754, 0.01331642702644955482, 0.01775523603526605806, 0.01997464053967430708, 0.02219404504408255957, 0.02663285405289905761, 0.02885225855730731703, 0.03107166306171556952, 0.03551047207053208143 ),
 .UNSPECIFIED. ) ;
#391 = EDGE_CURVE ( 'NONE', #59, #256, #210, .T. ) ;
#392 = CARTESIAN_POINT ( 'NONE',  ( 142.0000000000000284, -2.283310418327730488E-13, 16.45298551864311776 ) ) ;
#393 = DIRECTION ( 'NONE',  ( -1.000000000000000000, -0.000000000000000000, -0.000000000000000000 ) ) ;
#394 = DIRECTION ( 'NONE',  ( 0.000000000000000000, -4.930623273411181915E-15, 1.000000000000000000 ) ) ;
#395 = B_SPLINE_CURVE_WITH_KNOTS ( 'NONE', 3,
 ( #376, #83, #47, #13, #147, #277, #86, #281, #115, #246, #55, #373, #22, #80, #313, #287, #408, #251, #355, #255, #157, #199, #295, #27, #320, #62 ),
 .UNSPECIFIED., .F., .F.,
 ( 4, 2, 2, 2, 2, 2, 2, 2, 2, 2, 2, 2, 4 ),
 ( 0.000000000000000000, 0.004438809008816515383, 0.008877618017633030767, 0.009987320269837158745, 0.01109702252204128499, 0.01331642702644953227, 0.01775523603526602684, 0.01997464053967427239, 0.02219404504408251794, 0.02663285405289901597, 0.02885225855730726499, 0.03107166306171551401, 0.03551047207053199817 ),
 .UNSPECIFIED. ) ;
#396 = PLANE ( 'NONE',  #365 ) ;
#397 = ORIENTED_EDGE ( 'NONE', *, *, #204, .T. ) ;
#398 = CARTESIAN_POINT ( 'NONE',  ( 0.000000000000000000, 0.000000000000000000, 0.000000000000000000 ) ) ;
#399 = APPLICATION_CONTEXT ( 'configuration controlled 3d designs of mechanical parts and assemblies' ) ;
#400 = FACE_OUTER_BOUND ( 'NONE', #222, .T. ) ;
#401 = FACE_OUTER_BOUND ( 'NONE', #381, .T. ) ;
#402 = APPROVAL ( #405, 'æœª' ) ;
#403 = CARTESIAN_POINT ( 'NONE',  ( 128.2000000000000455, 49.24513558192136742, -4.280416408009572571 ) ) ;
#404 = CARTESIAN_POINT ( 'NONE',  ( 128.2000000000000455, 44.91830090537877140, 14.53934291951629731 ) ) ;
#405 = APPROVAL_STATUS ( 'not_yet_approved' ) ;
#406 = CARTESIAN_POINT ( 'NONE',  ( 128.2000000000000455, 43.98515956857598752, -15.83038783704487606 ) ) ;
#407 = ORIENTED_EDGE ( 'NONE', *, *, #96, .T. ) ;
#408 = CARTESIAN_POINT ( 'NONE',  ( 128.2000000000000171, 49.22764261960789156, 3.684658318593618809 ) ) ;
#409 = ORIENTED_EDGE ( 'NONE', *, *, #12, .F. ) ;
#410 = PRODUCT_DEFINITION_FORMATION_WITH_SPECIFIED_SOURCE ( 'ä»', '', #274, .NOT_KNOWN. ) ;
#411 = LINE ( 'NONE', #160, #146 ) ;
#412 = ORIENTED_EDGE ( 'NONE', *, *, #190, .F. ) ;
#413 = CARTESIAN_POINT ( 'NONE',  ( 142.2000000000000455, 47.35842259883726513, 10.13294313500132482 ) ) ;
#414 = ORIENTED_EDGE ( 'NONE', *, *, #384, .T. ) ;
#415 = CARTESIAN_POINT ( 'NONE',  ( 142.2000000000000171, 42.99999999999998579, -17.86029115104232901 ) ) ;
#416 = CARTESIAN_POINT ( 'NONE',  ( 142.2000000000000171, 50.00000000000001421, -6.323648207585476300 ) ) ;
ENDSEC;
END-ISO-10303-21;
